<svg width="540" height="270" viewBox="0 0 540 270" fill="none" xmlns="http://www.w3.org/2000/svg">
<g clip-path="url(#clip0)">
<path d="M161.449 261.347H0.0129395V262.427H161.449V261.347Z" fill="#3F3D56"/>
<path d="M17.5246 262.933L17.2176 262.257C17.1503 262.109 10.5238 247.25 14.8239 232.885C19.1241 218.52 32.8246 209.747 32.9623 209.66L33.59 209.265L33.8968 209.94C33.9641 210.088 40.5903 224.947 36.2905 239.312C31.9902 253.677 18.2897 262.45 18.1521 262.537L17.5246 262.933ZM16.0641 233.257C12.4282 245.402 16.8723 257.936 18.0998 261.01C20.8139 259.114 31.4182 251.074 35.0503 238.94C38.682 226.808 34.2407 214.264 33.0146 211.187C30.2989 213.084 19.6959 221.124 16.0641 233.257V233.257Z" fill="#3F3D56"/>
<path d="M21.4854 233.915C25.0879 248.4 17.764 262.69 17.764 262.69C17.764 262.69 4.59906 253.496 0.996504 239.011C-2.60606 224.527 4.71793 210.236 4.71793 210.236C4.71793 210.236 17.8828 219.43 21.4854 233.915Z" fill="#06B2BA"/>
<path d="M490.192 216.518H171.64C170.781 216.517 169.958 216.175 169.35 215.568C168.743 214.96 168.401 214.137 168.4 213.278V17.2782C168.401 16.4193 168.743 15.5958 169.35 14.9885C169.958 14.3811 170.781 14.0395 171.64 14.0386H490.192C491.051 14.0395 491.875 14.3811 492.482 14.9885C493.089 15.5958 493.431 16.4193 493.432 17.2782V213.278C493.431 214.137 493.089 214.96 492.482 215.568C491.875 216.175 491.051 216.517 490.192 216.518V216.518ZM171.64 15.1185C171.067 15.1191 170.518 15.3469 170.114 15.7518C169.709 16.1567 169.481 16.7056 169.48 17.2782V213.278C169.481 213.851 169.709 214.4 170.113 214.805C170.518 215.209 171.067 215.437 171.64 215.438H490.192C490.765 215.437 491.314 215.209 491.719 214.805C492.124 214.4 492.352 213.851 492.352 213.278V17.2782C492.352 16.7056 492.124 16.1566 491.719 15.7517C491.314 15.3468 490.765 15.1191 490.192 15.1185H171.64Z" fill="#3F3D56"/>
<path d="M491.785 3.32568e-05H170.047C169.328 -0.00352703 168.636 0.2789 168.125 0.785192C167.613 1.29148 167.324 1.98017 167.321 2.69975V21.0579H494.512V2.69975C494.508 1.98017 494.219 1.29148 493.708 0.785192C493.196 0.2789 492.505 -0.00352703 491.785 3.32568e-05V3.32568e-05Z" fill="#06B2BA"/>
<path d="M455.201 13.6014C457.046 13.6014 458.543 12.1049 458.543 10.2589C458.543 8.41288 457.046 6.91638 455.201 6.91638C453.355 6.91638 451.858 8.41288 451.858 10.2589C451.858 12.1049 453.355 13.6014 455.201 13.6014Z" fill="#D0CDE1"/>
<path d="M465.896 13.6014C467.742 13.6014 469.238 12.1049 469.238 10.2589C469.238 8.41288 467.742 6.91638 465.896 6.91638C464.05 6.91638 462.554 8.41288 462.554 10.2589C462.554 12.1049 464.05 13.6014 465.896 13.6014Z" fill="#D0CDE1"/>
<path d="M476.592 13.6014C478.438 13.6014 479.934 12.1049 479.934 10.2589C479.934 8.41288 478.438 6.91638 476.592 6.91638C474.746 6.91638 473.249 8.41288 473.249 10.2589C473.249 12.1049 474.746 13.6014 476.592 13.6014Z" fill="#D0CDE1"/>
<path d="M339.555 160.903H189.457V50.7548H339.555V160.903ZM190.537 159.824H338.475V51.8346H190.537V159.824Z" fill="#3F3D56"/>
<path d="M409.205 77.212H374.65V83.1514H409.205V77.212Z" fill="#3F3D56"/>
<path d="M437.82 133.366H403.265V139.306H437.82V133.366Z" fill="#3F3D56"/>
<path d="M471.835 94.4902H374.65V100.43H471.835V94.4902Z" fill="#3F3D56"/>
<path d="M471.835 104.209H374.65V110.149H471.835V104.209Z" fill="#3F3D56"/>
<path d="M471.835 113.928H374.65V119.868H471.835V113.928Z" fill="#3F3D56"/>
<path d="M469.382 194.662C472.209 192.196 476.77 189.869 480.446 188.506C476.77 187.142 472.209 184.815 469.382 182.35L471.374 187.859H461.037V189.154H471.374L469.382 194.662Z" fill="#3F3D56"/>
<path d="M540 215.438H121.832V216.518H540V215.438Z" fill="#3F3D56"/>
<path d="M297.834 82.51H233.337V142.818H297.834V82.51Z" fill="#06B2BA"/>
<path d="M272.358 80.8975H258.814V144.753H272.358V80.8975Z" fill="#3F3D56"/>
<path d="M263.644 68.8185C267.969 72.5305 266.645 81.1684 266.645 81.1684C266.645 81.1684 258.308 83.788 253.983 80.0761C249.658 76.3641 250.983 67.7262 250.983 67.7262C250.983 67.7262 259.319 65.1066 263.644 68.8185Z" fill="#3F3D56"/>
<path d="M278.002 79.2605C274.303 83.5972 265.662 82.2996 265.662 82.2996C265.662 82.2996 263.016 73.9709 266.715 69.6342C270.413 65.2975 279.054 66.5951 279.054 66.5951C279.054 66.5951 281.7 74.9239 278.002 79.2605Z" fill="#3F3D56"/>
<path d="M55.2874 248.644L55.8273 253.504L50.968 252.964V247.025L55.2874 248.644Z" fill="#FFB8B8"/>
<path d="M106.04 248.644L105.5 253.504L110.359 252.964V247.025L106.04 248.644Z" fill="#FFB8B8"/>
<path d="M54.7473 143.895L52.5877 199.509C52.5877 199.509 45.5687 241.085 47.1885 242.165C48.8082 243.245 47.1885 249.184 47.1885 249.184L56.3671 250.264C56.3671 250.264 56.3671 245.945 58.5268 244.325C60.6865 242.705 80.6635 166.573 80.6635 166.573L101.18 240.005C101.18 240.005 100.641 244.325 102.26 244.325C103.88 244.325 104.42 250.264 104.42 250.264H113.599V244.325C113.599 244.325 116.298 243.785 114.678 239.465C113.059 235.146 107.12 143.895 107.12 143.895H54.7473Z" fill="#2F2E41"/>
<path d="M52.0479 248.644C52.0479 248.644 49.3483 247.024 48.2684 248.104C47.1886 249.184 38.5499 259.983 38.5499 259.983C38.5499 259.983 26.6716 267.542 37.47 269.702C48.2684 271.862 56.3672 261.603 56.9071 260.523C57.4471 259.443 56.3672 250.804 55.8273 251.884C55.2874 252.964 53.6676 252.424 53.1277 251.884C52.5878 251.344 52.0479 248.644 52.0479 248.644Z" fill="#2F2E41"/>
<path d="M109.279 248.644C109.279 248.644 111.979 247.024 113.059 248.104C114.138 249.184 122.777 259.983 122.777 259.983C122.777 259.983 134.655 267.542 123.857 269.702C113.059 271.862 104.96 261.603 104.42 260.523C103.88 259.443 104.96 250.804 105.5 251.884C106.04 252.964 107.659 252.424 108.199 251.884C108.739 251.344 109.279 248.644 109.279 248.644Z" fill="#2F2E41"/>
<path d="M87.4126 63.9834C93.5255 63.9834 98.4809 59.0277 98.4809 52.9146C98.4809 46.8014 93.5255 41.8457 87.4126 41.8457C81.2997 41.8457 76.3442 46.8014 76.3442 52.9146C76.3442 59.0277 81.2997 63.9834 87.4126 63.9834Z" fill="#FFB8B8"/>
<path d="M80.1237 59.1238L78.5039 75.8621L91.462 78.5618L94.7015 58.5839L80.1237 59.1238Z" fill="#FFB8B8"/>
<path d="M93.6216 72.0825C93.6216 72.0825 90.3821 79.1018 78.5039 71.5426L56.3672 143.895C56.3672 143.895 86.0628 161.713 104.96 148.215L98.4809 75.3222L93.6216 72.0825Z" fill="#575A89"/>
<path d="M80.6635 63.9834L70.405 62.3635L69.3251 69.3828C69.3251 69.3828 55.2872 71.0026 53.6675 76.4021L55.2872 116.358C55.2872 116.358 50.4279 124.997 54.7473 130.397C54.7473 130.397 47.7283 144.975 53.1275 147.675C53.1275 147.675 65.5457 141.735 73.1046 143.355C73.1046 143.355 77.4239 142.275 77.4239 139.036C77.4239 135.796 80.6635 63.9834 80.6635 63.9834Z" fill="#2F2E41"/>
<path d="M93.0816 65.0632L99.0207 66.6831L99.5606 74.2423C99.5606 74.2423 114.138 83.4213 114.678 88.8208C115.218 94.2202 103.88 120.138 103.88 120.138C103.88 120.138 108.199 127.697 106.58 132.556C106.58 132.556 113.599 146.595 109.279 150.374C109.279 150.374 101.18 152.534 100.101 149.295C99.0207 146.055 89.3022 108.799 93.6215 90.9806C93.6215 90.9806 89.3022 68.3029 93.0816 65.0632Z" fill="#2F2E41"/>
<path d="M99.2907 82.6474H99.0875V77.0799C99.0875 76.6568 99.0041 76.2378 98.8422 75.8468C98.6803 75.4559 98.4429 75.1006 98.1437 74.8014C97.8445 74.5022 97.4893 74.2649 97.0984 74.1029C96.7074 73.941 96.2885 73.8577 95.8653 73.8577H84.0705C83.6474 73.8577 83.2284 73.941 82.8375 74.1029C82.4465 74.2649 82.0913 74.5022 81.7921 74.8014C81.4929 75.1006 81.2556 75.4559 81.0937 75.8468C80.9317 76.2378 80.8484 76.6568 80.8484 77.0799V107.623C80.8484 108.046 80.9317 108.465 81.0937 108.856C81.2556 109.247 81.4929 109.603 81.7921 109.902C82.0913 110.201 82.4465 110.438 82.8375 110.6C83.2284 110.762 83.6474 110.846 84.0705 110.846H95.8653C96.2885 110.846 96.7074 110.762 97.0984 110.6C97.4893 110.438 97.8445 110.201 98.1437 109.902C98.4429 109.603 98.6803 109.247 98.8422 108.856C99.0041 108.465 99.0875 108.046 99.0875 107.623V86.6104H99.2907V82.6474Z" fill="#3F3D56"/>
<path d="M104.42 104.479C104.42 104.479 100.101 90.4409 93.6215 94.7605C87.1425 99.08 97.9408 110.959 97.9408 110.959L104.42 104.479Z" fill="#FFB8B8"/>
<path d="M74.7244 94.2204C74.7244 94.2204 82.2833 85.0413 86.0627 89.3609C89.8421 93.6804 79.5837 103.399 79.5837 103.399L74.7244 94.2204Z" fill="#FFB8B8"/>
<path d="M55.2872 75.8623C55.2872 75.8623 52.5876 75.3224 50.9678 80.1819C49.3481 85.0414 43.4089 103.399 43.4089 106.639C43.4089 109.879 45.5686 122.837 57.4468 120.678C69.3251 118.518 83.363 103.399 83.363 103.399L75.8041 92.0607L59.6065 101.78L55.2872 75.8623Z" fill="#2F2E41"/>
<path opacity="0.1" d="M57.6202 89.8603L59.8766 101.51L76.6141 91.7906L60.9564 97.73L57.5042 89.1654L57.6202 89.8603Z" fill="black"/>
<path opacity="0.1" d="M105.23 101.509L107.389 103.129L108.469 95.5701L105.23 101.509Z" fill="black"/>
<path opacity="0.1" d="M55.0173 122.027C55.0173 122.027 70.8763 117.713 78.3345 108.261C78.3345 108.261 70.675 120.947 55.0173 122.027Z" fill="black"/>
<path opacity="0.1" d="M94.9714 112.308C94.9714 112.308 98.3109 128.653 106.9 129.12C106.9 129.12 96.5912 132.286 94.9714 112.308Z" fill="black"/>
<path d="M112.519 86.6611C112.519 86.6611 114.138 87.741 115.218 92.6005C116.298 97.46 123.317 115.818 120.617 120.138C117.918 124.457 113.598 134.176 104.42 127.697L95.2412 110.959L104.42 102.32L108.199 105.019L112.519 86.6611Z" fill="#2F2E41"/>
<path d="M76.7869 55.7217C76.7869 55.7217 67.5041 40.6765 77.3916 39.894C80.6911 39.6632 83.913 38.7852 86.8735 37.3102C90.151 35.6424 94.2765 34.3746 96.4719 36.9421C97.4299 38.1161 98.5469 39.1508 99.7905 40.0166C101.719 41.2956 103.95 43.369 102.715 45.5931L100.689 49.2394L97.8532 56.5319C98.5137 53.3864 98.5303 50.7454 96.8405 49.4419C96.8405 49.4419 87.4125 53.4543 82.6612 46.2008C77.3424 42.21 75.6502 54.7714 76.7869 55.7217Z" fill="#2F2E41"/>
<path d="M90.1119 87.471C91.6029 87.471 92.8115 86.2623 92.8115 84.7713C92.8115 83.2802 91.6029 82.0715 90.1119 82.0715C88.621 82.0715 87.4124 83.2802 87.4124 84.7713C87.4124 86.2623 88.621 87.471 90.1119 87.471Z" fill="#06B2BA"/>
</g>
<defs>
<clipPath id="clip0">
<rect width="540" height="270" fill="white"/>
</clipPath>
</defs>
</svg>
