<svg width="600" height="454" viewBox="0 0 600 454" fill="none" xmlns="http://www.w3.org/2000/svg">
<g clip-path="url(#clip0)">
<path d="M322.789 454C443.573 454 541.488 426.074 541.488 391.625C541.488 357.175 443.573 329.249 322.789 329.249C202.004 329.249 104.089 357.175 104.089 391.625C104.089 426.074 202.004 454 322.789 454Z" fill="#F5F5F5"/>
<path d="M530.866 148.978C530.866 148.978 492.125 187.65 513.995 245.036C535.865 302.421 476.503 397.856 476.503 397.856C476.503 397.856 477.128 397.762 478.322 397.556C557.891 383.534 597.426 292.691 553.18 225.207C536.752 200.119 523.224 170.684 530.866 148.978Z" fill="#06B2BA"/>
<path d="M530.866 148.978C530.866 148.978 508.996 196.383 530.866 235.056C552.736 273.729 534.615 382.262 476.503 397.856" stroke="#535461" stroke-width="2" stroke-miterlimit="10"/>
<path d="M599.863 305.397C599.863 305.397 555.654 298.367 551.624 337.919C547.593 377.472 466.643 382.948 466.643 382.948C466.643 382.948 467.168 383.31 468.161 383.959C535.021 427.771 598.938 411.865 589.309 353.688C585.703 332.062 585.991 310.337 599.863 305.397Z" fill="#06B2BA"/>
<path opacity="0.2" d="M599.863 305.397C599.863 305.397 555.654 298.367 551.624 337.919C547.593 377.472 466.643 382.948 466.643 382.948C466.643 382.948 467.168 383.31 468.161 383.959C535.021 427.771 598.938 411.865 589.309 353.688C585.703 332.062 585.991 310.337 599.863 305.397Z" fill="#F5F5F5"/>
<path d="M599.863 305.397C599.863 305.397 565.545 312.919 568.364 344.069C571.182 375.22 517.382 412.545 466.618 382.936" stroke="#535461" stroke-width="2" stroke-miterlimit="10"/>
<path opacity="0.2" d="M94.6031 0.0489874C89.5668 -0.125664 84.4054 0.0489872 79.6815 1.80798C66.8282 6.59218 60.7359 22.2422 62.7167 35.7964C64.6975 49.3506 72.8456 61.1208 81.2999 71.9055C89.7542 82.6903 98.9146 93.3378 103.551 106.212C105.863 112.643 106.944 119.847 104.595 126.266C100.97 136.165 90.0417 141.697 79.5503 142.845C69.059 143.993 58.5239 141.754 47.995 140.974C43.5773 140.662 39.0346 140.625 34.873 142.072C30.3053 143.65 26.5 146.868 23.0008 150.224C9.34764 163.385 -1.5811 181.35 0.187247 200.212C2.18679 221.594 20.0202 238.498 39.5532 247.561C46.0205 250.568 52.8627 253 58.5551 257.292C73.5517 268.607 76.9197 289.808 75.4263 308.527C73.9329 327.246 68.8465 345.983 71.6771 364.54C75.0076 386.122 89.748 405.614 109.631 414.721C127.346 422.83 149.516 422.325 165.243 410.854C172.91 405.24 178.709 397.499 183.751 389.472C191.362 377.361 197.538 364.408 202.153 350.874C204.347 344.443 206.409 337.525 211.526 333.053C214.651 330.302 218.7 328.762 222.705 327.564C234.777 323.959 247.493 322.967 259.678 319.761C271.863 316.555 284.122 310.579 290.746 299.894C300.118 284.731 295.745 265.338 295.788 247.499C295.863 206.855 320.226 170.465 329.218 130.857C332.155 117.907 333.248 103.58 326.687 92.0341C322.226 84.1561 314.709 78.5423 306.805 74.176C289.433 64.5452 269.688 60.26 250.261 56.0871C223.261 50.2987 190.475 49.5502 169.548 30.825C149.466 12.8609 121.991 0.0489874 94.6031 0.0489874Z" fill="#06B2BA"/>
<g opacity="0.5">
<path opacity="0.5" d="M192.543 157.367C192.542 147.571 191.005 137.834 187.988 128.512L180.49 105.302C180.49 104.916 180.49 104.535 180.49 104.155C180.721 89.278 169.105 81.8554 164.631 82.66C160.051 83.4834 147.341 77.1211 147.341 77.1211V77.2957C146.47 76.2943 145.684 75.2219 144.992 74.0896C147.188 72.4931 149.042 70.4745 150.445 68.1525C151.848 65.8305 152.772 63.2519 153.163 60.5682C153.554 57.8846 153.403 55.1501 152.72 52.5254C152.036 49.9008 150.835 47.4389 149.185 45.2846C150.558 44.2543 151.606 42.8511 152.203 41.2427C153.24 38.3297 152.446 35.0051 150.759 32.4103C150.042 31.3271 149.203 30.3289 148.26 29.435C146.831 28.0217 145.27 26.7476 143.598 25.6301C139.431 22.7483 134.85 20.272 129.852 19.3925C128.987 19.1887 128.086 19.1887 127.221 19.3925C126.47 19.695 125.755 20.0799 125.09 20.5402C121.666 22.4864 117.404 21.6443 113.455 21.4385C109.506 21.2326 104.707 22.3367 103.458 26.0355C103.07 27.177 103.095 28.412 102.833 29.5847C102.208 32.454 99.9896 34.6808 98.2775 37.0697C96.5654 39.4587 95.2844 42.6835 96.7091 45.2784C97.1965 46.1516 97.9588 46.9563 97.9588 47.9543C97.9588 48.6716 97.5339 49.3141 97.334 50.0002C96.9028 51.5596 97.7151 53.119 98.9649 54.248C99.5034 54.8275 100.137 55.3106 100.839 55.6764C102.82 56.6868 105.101 56.9987 107.119 57.9344C108.127 58.4067 109.051 59.0386 109.856 59.8056C110.842 60.8363 111.613 62.0527 112.124 63.3838C112.635 64.7149 112.875 66.1342 112.83 67.5589L113.249 67.6026C113.249 67.7273 113.249 67.8458 113.249 67.9706C113.686 68.0205 114.149 68.0641 114.605 68.0828C115.261 69.1402 116.012 70.1361 116.848 71.0582C116.707 71.5904 116.546 72.131 116.367 72.6799C114.899 73.6966 102.889 81.6807 89.2296 79.7595C74.6517 77.7074 66.3161 141.33 66.3161 141.33C65.7758 144.969 65.5126 148.643 65.5288 152.321C65.4663 161.677 67.4346 173.922 78.4008 172.119L84.2307 170.204V201.672C84.2307 201.672 85.0618 210.293 82.15 216.019C79.2381 221.745 91.3166 219.711 91.3166 219.711C91.3166 219.711 91.779 220.192 92.6288 221.009L92.3601 221.764L92.7163 222.125C91.1277 227.547 88.9857 232.791 86.324 237.775L86.6677 237.95C86.449 238.368 86.324 238.574 86.324 238.574C86.324 238.574 90.8105 240.863 96.9841 243.813C101.945 260.555 112.805 299.328 109.231 306.713L109.331 306.925C110 308.31 113.736 316.475 112.98 323.953C112.299 330.64 121.572 361.023 125.034 372.057L123.397 372.388L129.227 393.321L127.977 406.869C127.977 406.869 120.897 425.75 137.556 422.057C154.215 418.365 149.634 403.176 149.634 403.176L150.053 372.388C150.053 372.388 148.447 371.496 146.466 370.641C145.104 366.967 142.136 358.285 142.136 352.278C142.136 344.481 136.719 310.817 136.719 310.817V310.748V310.617V310.58L136.687 310.131V310.056C136.687 309.638 136.619 309.064 136.569 308.366V308.328C135.944 299.228 134.069 268.308 135.438 252.19C136.641 251.371 137.893 250.625 139.187 249.957C143.242 260.187 153.696 287.825 153.027 299.421C152.196 313.767 152.821 302.502 153.027 300.669C153.09 300.101 153.134 300.787 153.152 302.328C153.152 302.608 153.152 302.92 153.152 303.251C153.152 303.582 153.152 303.95 153.152 304.33C153.152 304.711 153.152 305.122 153.152 305.578C153.152 305.794 153.152 306.014 153.152 306.239C153.152 306.688 153.152 307.158 153.152 307.648C153.152 307.894 153.152 308.143 153.152 308.397C153.152 309.644 153.152 311.029 153.109 312.47C153.109 312.757 153.109 313.048 153.109 313.343C153.109 314.223 153.109 315.121 153.065 316.032C153.065 317.279 153.015 318.489 152.99 319.743C152.927 322.55 152.846 325.388 152.746 328.045C152.746 328.34 152.736 328.634 152.715 328.925C152.694 329.507 152.671 330.077 152.646 330.634C152.621 331.191 152.596 331.736 152.571 332.268C152.546 332.796 152.519 333.31 152.49 333.809C152.459 334.395 152.421 334.956 152.39 335.493L150.128 335.168L149.647 340.358C148.889 348.598 149.956 356.902 152.771 364.685C153.546 366.818 154.146 368.583 154.277 369.213C154.696 371.265 154.277 386.054 154.277 386.054C154.277 386.054 156.777 405.347 168.443 401.648C173.691 399.983 176.241 394.918 177.459 389.841C178.811 383.955 178.307 377.796 176.016 372.207C174.36 368.053 172.667 362.227 173.86 357.723C175.941 349.927 175.941 338.842 175.941 338.842L174.654 338.661C174.975 338.053 175.264 337.428 175.522 336.79C175.522 336.79 175.104 308.466 178.853 304.773C180.915 302.739 180.727 297.855 180.103 293.863C179.21 288.086 179 282.224 179.478 276.398C179.734 273.398 180.103 270.785 180.534 269.855C181.633 267.684 182.733 245.803 177.866 235.274L178.865 234.962L178.709 234.189L178.865 234.139C179.6 236.095 180.434 238.013 181.365 239.884C181.611 240.076 181.893 240.216 182.196 240.295C195.686 237.931 196.23 225.363 195.48 218.501C196.049 218.776 196.361 218.95 196.361 218.95L197.611 200.862C198.892 197.974 199.367 194.287 199.336 190.301C199.392 176.055 192.543 157.367 192.543 157.367ZM177.672 208.783C176.747 200.905 175.466 193.489 175.466 193.489L169.218 171.321V163.249L179.128 200.175L177.672 208.783Z" fill="url(#paint0_linear)"/>
</g>
<path d="M149.578 329.873L149.116 334.944C148.386 343.002 149.42 351.121 152.146 358.74C152.89 360.83 153.471 362.551 153.596 363.169C153.996 365.177 153.596 379.617 153.596 379.617C153.596 379.617 156.008 398.473 167.262 394.862C172.323 393.24 174.76 388.281 175.96 383.322C177.26 377.571 176.772 371.561 174.56 366.094C172.96 362.034 171.323 356.326 172.479 351.941C174.491 344.319 174.491 333.491 174.491 333.491L149.578 329.873Z" fill="#5A5773"/>
<path d="M137.525 242.822C137.525 242.822 153.196 280.933 152.39 294.967C151.584 309.002 152.19 297.974 152.39 296.171C152.746 292.959 152.39 331.102 151.184 335.468C151.184 335.468 167.661 347.5 174.091 331.457C174.091 331.457 173.691 303.781 177.303 300.17C179.29 298.186 179.096 293.408 178.509 289.51C177.642 283.87 177.432 278.15 177.884 272.462C178.128 269.531 178.465 266.948 178.903 266.069C180.109 263.661 181.315 236.384 174.079 228.762L137.525 242.822Z" fill="#605D82"/>
<path opacity="0.1" d="M153.196 335.487C154.402 331.077 154.758 292.959 154.402 296.19C154.202 297.993 153.596 309.027 154.402 294.986C155.208 280.945 139.537 242.84 139.537 242.84L174.598 229.38C174.435 229.174 174.266 228.98 174.098 228.8L137.531 242.84C137.531 242.84 153.202 280.952 152.396 294.986C151.59 309.021 152.196 297.993 152.396 296.19C152.753 292.978 152.396 331.12 151.19 335.487C151.19 335.487 157.77 340.29 164.237 339.778C158.482 339.348 153.196 335.487 153.196 335.487Z" fill="black"/>
<path d="M123.859 366.375L129.483 386.834L128.277 400.07C128.277 400.07 121.447 418.521 137.518 414.909C153.59 411.298 149.172 396.459 149.172 396.459L149.572 366.375C149.572 366.375 143.142 362.763 140.33 363.169C137.518 363.574 123.859 366.375 123.859 366.375Z" fill="#5A5773"/>
<path d="M96.1343 233.197C96.1343 233.197 114.618 292.965 110.2 302.191C110.2 302.191 114.618 311.017 113.818 319.032C113.018 327.047 126.677 369.974 126.677 369.974L146.773 366.362C146.773 366.362 141.949 354.33 141.949 346.708C141.949 339.086 136.725 306.164 136.725 306.164C136.725 306.164 132.307 245.99 137.531 239.572L96.1343 233.197Z" fill="#605D82"/>
<g opacity="0.1">
<path opacity="0.1" d="M135.969 244.462C132.638 258.085 136.319 308.216 136.319 308.216C136.319 308.216 141.543 341.107 141.543 348.76C141.543 354.58 144.348 362.963 145.679 366.606L146.766 366.412C146.766 366.412 141.942 354.38 141.942 346.758C141.942 339.136 136.719 306.214 136.719 306.214C136.719 306.214 133.357 260.399 135.969 244.462Z" fill="black"/>
<path opacity="0.1" d="M110.2 302.19L110.3 302.396C110.331 302.19 110.362 301.972 110.381 301.773C110.328 301.915 110.267 302.054 110.2 302.19Z" fill="black"/>
<path opacity="0.1" d="M136.619 241.543C136.801 240.851 137.108 240.198 137.525 239.615L96.1343 233.197C96.1343 233.197 96.378 233.977 96.7966 235.368L136.619 241.543Z" fill="black"/>
</g>
<path d="M192.575 211.534C192.575 211.534 198.604 233.989 180.521 237.208C180.228 237.132 179.953 236.996 179.715 236.809C179.715 236.809 169.267 216.349 177.303 208.328L192.575 211.534Z" fill="#A1616A"/>
<path d="M118.635 62.3256C118.635 62.3256 119.841 79.1669 106.582 87.1947C93.3224 95.2224 134.7 117.278 134.7 117.278L156.402 82.7785C156.402 82.7785 147.166 83.9699 141.543 67.9394L118.635 62.3256Z" fill="#A1616A"/>
<path opacity="0.1" d="M109.794 88.3861C109.794 88.3861 130.289 130.907 148.772 90.7938L177.303 231.987C177.303 231.987 133.094 245.628 132.701 252.047C132.307 258.465 88.1047 235.605 88.1047 235.605C88.1047 235.605 97.7463 217.952 95.3406 207.124C92.9349 196.296 109.794 88.3861 109.794 88.3861Z" fill="black"/>
<path d="M109.794 87.5814C109.794 87.5814 130.289 130.103 148.772 89.9891L177.303 231.188C177.303 231.188 133.094 244.83 132.701 251.248C132.307 257.667 88.1047 234.8 88.1047 234.8C88.1047 234.8 97.7463 217.148 95.3406 206.319C92.9349 195.491 109.794 87.5814 109.794 87.5814Z" fill="#E1E7EF"/>
<path d="M129.889 377.609C129.889 377.609 124.665 365.976 136.719 365.976C148.772 365.976 146.766 376.405 146.766 376.405L129.889 377.609Z" fill="#5A5773"/>
<path d="M157.214 347.519C157.214 347.519 152.39 335.081 164.45 334.682C176.509 334.283 170.48 345.91 170.48 345.91L157.214 347.519Z" fill="#5A5773"/>
<path opacity="0.1" d="M146.966 78.5432C146.966 78.5432 159.22 84.7808 163.644 83.9574C168.068 83.134 179.715 90.775 178.915 106.02L186.176 128.762C189.081 137.881 190.556 147.393 190.55 156.962C190.55 156.962 200.998 185.842 195.374 198.678L194.168 216.331C194.168 216.331 184.926 211.116 175.279 212.719L177.709 198.304L166.837 157.38L148.753 113.654L146.966 78.5432Z" fill="black"/>
<path d="M146.966 77.751C146.966 77.751 159.22 83.9886 163.644 83.1652C168.068 82.3419 179.715 89.9829 178.915 105.227L186.176 127.97C189.081 137.088 190.556 146.601 190.55 156.17C190.55 156.17 200.998 185.049 195.374 197.886L194.168 215.538C194.168 215.538 184.926 210.324 175.279 211.927L177.691 197.487L166.837 156.575L148.772 112.85L146.966 77.751Z" fill="#67647E"/>
<path opacity="0.1" d="M167.262 126.491V171.82L173.292 193.483C173.292 193.483 177.309 217.148 176.103 224.371C174.897 231.594 155.608 233.197 150.384 227.178C145.16 221.159 147.972 169.792 147.972 169.792L146.966 94.5987L147.772 92.191L167.262 126.491Z" fill="black"/>
<path d="M168.086 124.489V169.817L174.116 191.48C174.116 191.48 178.134 215.146 176.928 222.369C175.722 229.592 156.433 231.195 151.209 225.176C145.985 219.156 148.797 167.79 148.797 167.79L147.791 92.5777L168.086 124.489Z" fill="#67647E"/>
<path opacity="0.1" d="M87.0925 162.195L99.9521 202.115L93.9222 219.163C93.9222 219.163 122.453 249.246 140.537 234.806C140.537 234.806 142.549 173.429 138.524 158.989C134.5 144.549 115.217 95.9897 115.217 95.9897L111.224 83.1715L89.9294 95.2037L87.0925 162.195Z" fill="black"/>
<path d="M86.0864 160.186V199.483C86.0864 199.483 86.8925 207.91 84.0744 213.524C81.2563 219.138 92.9161 217.135 92.9161 217.135C92.9161 217.135 121.447 247.219 139.53 232.779C139.53 232.779 141.542 171.402 137.518 156.962C133.494 142.522 114.211 93.9624 114.211 93.9624L110.193 81.1255L88.8983 93.1578L86.0864 160.186Z" fill="#67647E"/>
<path opacity="0.1" d="M117.229 74.1458C117.229 74.1458 104.976 83.1715 90.9103 81.163C76.8447 79.1545 68.8091 141.337 68.8091 141.337C68.8091 141.337 63.5853 173.429 80.4627 170.622L117.835 158.184C117.835 158.184 109.8 149.757 111.006 138.929L92.9161 146.146L93.7284 111.652L117.229 74.1458Z" fill="black"/>
<path opacity="0.1" d="M69.6091 140.532C69.6091 140.532 64.3853 172.624 81.2627 169.817L118.635 157.38C118.635 157.38 110.6 148.959 111.806 138.124L93.7286 145.347L69.6091 140.532Z" fill="black"/>
<path d="M110.918 142.353C110.918 142.353 123.459 125.892 132.695 133.795C141.93 141.698 114.23 156.182 114.23 156.182L110.918 142.353Z" fill="#A1616A"/>
<path d="M117.229 73.3411C117.229 73.3411 104.976 82.3669 90.9103 80.3584C76.8447 78.3499 68.8091 140.532 68.8091 140.532C68.8091 140.532 63.5853 172.624 80.4627 169.817L117.835 157.38C117.835 157.38 109.8 148.953 111.006 138.124L92.9161 145.347L93.7284 110.848L114.224 94.0061L117.229 73.3411Z" fill="#67647E"/>
<path opacity="0.1" d="M141.942 68.7253L119.035 63.1115C119.035 63.1115 120.229 64.4589 118.835 69.7296C122.522 73.9524 127.052 79.56 133.101 79.56C137.429 79.5681 141.644 78.1738 145.11 75.5866C143.817 73.4166 142.755 71.1168 141.942 68.7253Z" fill="black"/>
<path d="M132.701 78.7616C143.799 78.7616 152.796 69.7804 152.796 58.7016C152.796 47.6228 143.799 38.6416 132.701 38.6416C121.602 38.6416 112.605 47.6228 112.605 58.7016C112.605 69.7804 121.602 78.7616 132.701 78.7616Z" fill="#A1616A"/>
<path opacity="0.1" d="M140.318 49.9939C144.979 49.2018 150.103 47.1371 151.665 42.6835C152.665 39.833 151.903 36.5894 150.272 34.0508C148.641 31.5121 146.241 29.5597 143.767 27.8132C139.749 24.9938 135.319 22.5737 130.483 21.7254C129.649 21.5264 128.78 21.5264 127.946 21.7254C127.22 22.0217 126.531 22.3983 125.89 22.8481C122.584 24.7506 118.473 23.9272 114.642 23.7276C110.812 23.528 106.219 24.6071 105.013 28.2187C104.638 29.3352 104.663 30.539 104.389 31.6867C103.764 34.4936 101.645 36.6768 100.015 39.0159C98.3837 41.3549 97.1277 44.5174 98.5024 47.0373C98.971 47.8919 99.7521 48.6778 99.7521 49.6509C99.6315 50.3425 99.4215 51.0155 99.1273 51.6531C98.5586 53.724 100.214 55.8136 102.127 56.7991C104.039 57.7846 106.238 58.0903 108.188 59.0072C110.012 59.906 111.54 61.3092 112.589 63.0496C113.638 64.7901 114.164 66.7947 114.105 68.8251C115.88 69.0309 117.948 69.137 119.148 67.8146C119.685 67.2221 119.947 66.4299 120.435 65.7999C121.06 64.9765 122.034 64.49 122.834 63.8288C127.04 60.3795 124.053 55.614 126.433 51.8964C127.683 49.9815 129.67 50.5678 131.682 50.599C134.573 50.6665 137.464 50.4639 140.318 49.9939Z" fill="black"/>
<path d="M139.918 49.5947C144.579 48.8026 149.703 46.7379 151.265 42.2843C152.265 39.4338 151.503 36.1903 149.872 33.6516C148.241 31.1129 145.842 29.1605 143.367 27.414C139.349 24.5947 134.919 22.1745 130.083 21.3262C129.249 21.1272 128.38 21.1272 127.546 21.3262C126.821 21.6225 126.131 21.9991 125.49 22.4489C122.184 24.3514 118.073 23.528 114.243 23.3284C110.412 23.1288 105.819 24.2079 104.614 27.8195C104.239 28.936 104.264 30.1398 103.989 31.2875C103.364 34.0944 101.246 36.2776 99.6147 38.6167C97.9838 40.9557 96.7278 44.1182 98.1025 46.6382C98.5711 47.4927 99.3522 48.2786 99.3522 49.2517C99.2316 49.9433 99.0216 50.6163 98.7274 51.2539C98.1587 53.3248 99.8146 55.4144 101.727 56.3999C103.639 57.3854 105.838 57.6911 107.788 58.608C109.62 59.5059 111.154 60.9118 112.207 62.6574C113.26 64.4029 113.786 66.4143 113.724 68.4509C115.499 68.6567 117.567 68.7627 118.767 67.4404C119.304 66.8478 119.566 66.0556 120.054 65.4256C120.679 64.6023 121.653 64.1158 122.453 63.4546C126.658 60.0052 123.672 55.2397 126.052 51.5221C127.302 49.6072 129.289 50.1936 131.301 50.2247C134.187 50.2829 137.072 50.0719 139.918 49.5947Z" fill="#4A4347"/>
<path opacity="0.1" d="M164.244 117.066C164.244 117.066 168.661 139.933 166.656 148.759C165.43 153.894 165.611 159.263 167.18 164.303" fill="black"/>
<path opacity="0.1" d="M92.8288 126.691C92.8288 126.691 90.9042 141.935 94.1097 145.142L92.8288 126.691Z" fill="black"/>
<path d="M205.034 314.56C205.283 314.56 205.521 314.461 205.697 314.286C205.873 314.11 205.972 313.872 205.972 313.624C205.972 313.376 205.873 313.138 205.697 312.962C205.521 312.787 205.283 312.688 205.034 312.688C204.786 312.688 204.547 312.787 204.372 312.962C204.196 313.138 204.097 313.376 204.097 313.624C204.097 313.872 204.196 314.11 204.372 314.286C204.547 314.461 204.786 314.56 205.034 314.56Z" fill="black"/>
<g opacity="0.5">
<path opacity="0.5" d="M493.637 205.558V205.041L323.151 74.1769C323.043 74.0974 322.913 74.0545 322.779 74.0545C322.645 74.0545 322.515 74.0974 322.407 74.1769L151.915 205.041V407.886H152.24V408.21H493.968V205.365L493.637 205.558Z" fill="url(#paint1_linear)"/>
</g>
<path d="M487.751 402.228H157.826V206.369L322.789 79.7471L487.751 206.369V402.228Z" fill="white"/>
<path d="M475.878 390.62H169.698V208.858L322.788 91.3489L475.878 208.858V390.62Z" fill="#E0E0E0"/>
<path d="M374.725 88.6331L187.956 137.51L250.229 374.633L436.998 325.756L374.725 88.6331Z" fill="#06B2BA"/>
<path d="M420.266 124.657H227.185V369.793H420.266V124.657Z" fill="#F5F5F5"/>
<path opacity="0.05" d="M159.388 206.681L324.351 304.611L159.388 402.54V206.681Z" fill="black"/>
<path d="M158.139 206.681L323.101 304.611L158.139 402.54V206.681Z" fill="white"/>
<path opacity="0.05" d="M486.814 206.681L321.851 304.611L486.814 402.54V206.681Z" fill="black"/>
<path d="M488.063 206.681L323.101 304.611L488.063 402.54V206.681Z" fill="white"/>
<path opacity="0.05" d="M158.139 399.421L323.101 270.928L488.063 399.421H158.139Z" fill="black"/>
<path d="M158.139 402.54L323.101 274.047L488.063 402.54H158.139Z" fill="white"/>
<path d="M191.662 417.417C191.662 417.417 183.377 389.348 193.218 368.677C197.4 360.036 198.661 350.274 196.811 340.857C195.899 336.394 194.579 332.024 192.868 327.802" stroke="#535461" stroke-width="2" stroke-miterlimit="10"/>
<path d="M198.986 314.74C198.986 318.184 192.737 328.157 192.737 328.157C192.737 328.157 186.489 318.177 186.489 314.74C186.489 313.086 187.147 311.5 188.319 310.33C189.491 309.16 191.08 308.503 192.737 308.503C194.394 308.503 195.984 309.16 197.155 310.33C198.327 311.5 198.986 313.086 198.986 314.74Z" fill="#06B2BA"/>
<path d="M209.327 333.802C207.453 336.69 196.78 341.68 196.78 341.68C196.78 341.68 196.974 329.916 198.848 327.028C199.783 325.722 201.186 324.826 202.766 324.526C204.345 324.226 205.98 324.545 207.33 325.418C208.679 326.291 209.64 327.649 210.012 329.21C210.384 330.772 210.139 332.417 209.327 333.802Z" fill="#06B2BA"/>
<path d="M208.852 366.369C205.772 367.916 194.037 366.849 194.037 366.849C194.037 366.849 200.154 356.794 203.229 355.247C203.964 354.836 204.776 354.578 205.614 354.489C206.452 354.399 207.3 354.48 208.107 354.726C208.913 354.972 209.661 355.378 210.306 355.921C210.95 356.463 211.479 357.13 211.858 357.881C212.238 358.633 212.462 359.453 212.515 360.293C212.569 361.133 212.452 361.975 212.171 362.768C211.89 363.562 211.451 364.291 210.881 364.91C210.311 365.53 209.621 366.028 208.852 366.375V366.369Z" fill="#06B2BA"/>
<path d="M202.954 390.938C200.179 392.984 188.432 393.907 188.432 393.907C188.432 393.907 192.756 382.967 195.53 380.921C196.865 380.032 198.492 379.69 200.072 379.965C201.653 380.24 203.067 381.112 204.022 382.4C204.976 383.688 205.397 385.293 205.199 386.883C205 388.472 204.196 389.924 202.954 390.938Z" fill="#06B2BA"/>
<path d="M183.652 342.342C186.151 344.737 197.642 347.226 197.642 347.226C197.642 347.226 194.824 335.805 192.35 333.409C191.146 332.348 189.579 331.789 187.974 331.85C186.369 331.911 184.849 332.587 183.729 333.737C182.61 334.887 181.978 336.423 181.963 338.027C181.949 339.63 182.553 341.178 183.652 342.348V342.342Z" fill="#06B2BA"/>
<path d="M177.116 371.165C180.196 372.712 191.931 371.646 191.931 371.646C191.931 371.646 185.814 361.591 182.739 360.044C181.271 359.382 179.604 359.311 178.085 359.847C176.566 360.382 175.313 361.483 174.588 362.919C173.862 364.354 173.72 366.014 174.191 367.552C174.662 369.09 175.71 370.386 177.116 371.172V371.165Z" fill="#06B2BA"/>
<path d="M174.616 400.045C177.391 402.091 189.138 403.014 189.138 403.014C189.138 403.014 184.814 392.074 182.039 390.028C181.384 389.493 180.628 389.097 179.814 388.863C179.001 388.629 178.149 388.562 177.31 388.667C176.47 388.772 175.661 389.045 174.93 389.472C174.2 389.898 173.564 390.468 173.061 391.147C172.557 391.826 172.198 392.6 172.003 393.422C171.808 394.244 171.783 395.097 171.928 395.929C172.074 396.761 172.387 397.555 172.849 398.262C173.311 398.97 173.912 399.576 174.616 400.045Z" fill="#06B2BA"/>
<path opacity="0.5" d="M315.915 135.885H238.433V142.123H315.915V135.885Z" fill="#06B2BA"/>
<path opacity="0.5" d="M405.895 160.835H238.433V167.073H405.895V160.835Z" fill="#06B2BA"/>
<path opacity="0.5" d="M405.895 177.053H238.433V183.29H405.895V177.053Z" fill="#06B2BA"/>
<path opacity="0.4" d="M405.895 193.27H238.433V199.508H405.895V193.27Z" fill="#06B2BA"/>
<path opacity="0.4" d="M405.895 209.488H238.433V215.726H405.895V209.488Z" fill="#06B2BA"/>
<path opacity="0.3" d="M334.036 225.706H238.433V231.943H334.036V225.706Z" fill="#06B2BA"/>
<path opacity="0.3" d="M369.028 241.923H238.433V248.161H369.028V241.923Z" fill="#06B2BA"/>
</g>
<defs>
<linearGradient id="paint0_linear" x1="65.535" y1="220.921" x2="199.267" y2="220.921" gradientUnits="userSpaceOnUse">
<stop stop-color="#808080" stop-opacity="0.25"/>
<stop offset="0.54" stop-color="#808080" stop-opacity="0.12"/>
<stop offset="1" stop-color="#808080" stop-opacity="0.1"/>
</linearGradient>
<linearGradient id="paint1_linear" x1="217981" y1="247533" x2="217981" y2="68509.1" gradientUnits="userSpaceOnUse">
<stop stop-color="#808080" stop-opacity="0.25"/>
<stop offset="0.54" stop-color="#808080" stop-opacity="0.12"/>
<stop offset="1" stop-color="#808080" stop-opacity="0.1"/>
</linearGradient>
<clipPath id="clip0">
<rect width="600" height="454" fill="white"/>
</clipPath>
</defs>
</svg>
