<svg width="240" height="159" viewBox="0 0 240 159" fill="none" xmlns="http://www.w3.org/2000/svg">
<path d="M91.7627 87.4471H75.5295V159H91.7627V87.4471Z" fill="url(#paint0_linear)"/>
<path d="M90.6936 87.4471H77.0234V157.72H90.6936V87.4471Z" fill="#ECEFF1"/>
<path d="M129.528 31.6988H56.4193C53.9063 31.7629 51.4297 32.3148 49.1272 33.3238C41.6956 36.6173 37.3701 41.7867 36.1485 53.2508V79.7367L16.7765 79.5316C12.8807 79.5316 11.4563 85.6563 11.4563 89.7962H142.314V45.2852C142.314 37.782 136.597 31.6988 129.528 31.6988Z" fill="url(#paint1_linear)"/>
<path d="M59.0806 34.4754H131.517C133.87 34.4754 136.127 35.4102 137.791 37.0742C139.456 38.7382 140.39 40.9951 140.39 43.3484V87.4471H59.0806V34.4754Z" fill="#06B2BA"/>
<path d="M57.3678 34.4754C62.5797 34.4754 67.578 36.5457 71.2634 40.2308C74.9487 43.9159 77.0191 48.914 77.0191 54.1255V77.8303C77.0191 80.3808 76.0058 82.8269 74.2022 84.6304C72.3986 86.4339 69.9524 87.4471 67.4018 87.4471H47.3339C44.7832 87.4471 42.337 86.4339 40.5334 84.6304C38.7298 82.8269 37.7166 80.3808 37.7166 77.8303V54.1255C37.7166 48.914 39.7869 43.9159 43.4723 40.2308C47.1576 36.5457 52.156 34.4754 57.3678 34.4754V34.4754Z" fill="#06B2BA"/>
<path opacity="0.2" d="M57.3678 34.4754C62.5797 34.4754 67.578 36.5457 71.2634 40.2308C74.9487 43.9159 77.0191 48.914 77.0191 54.1255V77.8303C77.0191 80.3808 76.0058 82.8269 74.2022 84.6304C72.3986 86.4339 69.9524 87.4471 67.4018 87.4471H47.3339C44.7832 87.4471 42.337 86.4339 40.5334 84.6304C38.7298 82.8269 37.7166 80.3808 37.7166 77.8303V54.1255C37.7166 48.914 39.7869 43.9159 43.4723 40.2308C47.1576 36.5457 52.156 34.4754 57.3678 34.4754V34.4754Z" fill="black"/>
<path d="M109.706 27.4281H99.5609H93.4729V39.4921V54.3392H100.841V39.4921H109.706V27.4281Z" fill="url(#paint2_linear)"/>
<path d="M108.424 27.4281H99.8795H94.7534V38.5345V52.2039H99.8795V38.5345H108.424V27.4281Z" fill="#FFCC80"/>
<path d="M37.8762 44.5879L35.8552 61.1905L62.8718 64.4788L64.8928 47.8762L37.8762 44.5879Z" fill="url(#paint3_linear)"/>
<path d="M38.1573 45.0409L36.2712 60.5349L62.3719 63.7117L64.258 48.2177L38.1573 45.0409Z" fill="#FAF8E4"/>
<g opacity="0.6">
<path opacity="0.6" d="M38.8417 48.8205L42.1633 49.2248L42.4625 46.7673L39.1409 46.363L38.8417 48.8205Z" fill="#06B2BA"/>
<path opacity="0.6" d="M40.9841 53.9319L53.7356 55.4839L53.8326 54.6872L41.0811 53.1351L40.9841 53.9319Z" fill="#06B2BA"/>
<path opacity="0.6" d="M44.2283 56.0797L53.5261 57.2114L53.5907 56.6809L44.2929 55.5492L44.2283 56.0797Z" fill="#06B2BA"/>
</g>
<path d="M48.8838 48.24L46.8628 64.8426L73.8794 68.1309L75.9004 51.5283L48.8838 48.24Z" fill="url(#paint4_linear)"/>
<path d="M49.1651 48.6951L47.2791 64.1892L73.3797 67.366L75.2658 51.872L49.1651 48.6951Z" fill="#FAF8E4"/>
<g opacity="0.6">
<path opacity="0.6" d="M49.8515 52.4752L53.1731 52.8795L53.4722 50.422L50.1507 50.0177L49.8515 52.4752Z" fill="#06B2BA"/>
<path opacity="0.6" d="M51.9938 57.5866L64.7454 59.1386L64.8424 58.3418L52.0908 56.7898L51.9938 57.5866Z" fill="#06B2BA"/>
<path opacity="0.6" d="M55.2334 59.7341L64.5312 60.8658L64.5958 60.3353L55.298 59.2036L55.2334 59.7341Z" fill="#06B2BA"/>
</g>
<path d="M25.4946 49.8008L22.7551 72.3057L59.3749 76.7628L62.1144 54.258L25.4946 49.8008Z" fill="url(#paint5_linear)"/>
<path d="M25.8779 50.4114L23.321 71.4158L58.7001 75.7219L61.2569 54.7175L25.8779 50.4114Z" fill="white"/>
<g opacity="0.6">
<path opacity="0.6" d="M26.8062 55.5365L31.3079 56.0844L31.7132 52.7543L27.2116 52.2064L26.8062 55.5365Z" fill="#06B2BA"/>
<path opacity="0.6" d="M29.7065 62.4672L46.9922 64.5711L47.1237 63.4907L29.838 61.3868L29.7065 62.4672Z" fill="#06B2BA"/>
<path opacity="0.6" d="M34.1045 65.377L46.7087 66.9111L46.7965 66.1901L34.1922 64.656L34.1045 65.377Z" fill="#06B2BA"/>
</g>
<path d="M40.4167 54.751L37.6772 77.2559L74.297 81.7131L77.0365 59.2082L40.4167 54.751Z" fill="url(#paint6_linear)"/>
<path d="M40.7978 55.3657L38.241 76.3701L73.62 80.6762L76.1768 59.6718L40.7978 55.3657Z" fill="white"/>
<g opacity="0.6">
<path opacity="0.6" d="M41.7273 60.49L46.229 61.0379L46.6344 57.7079L42.1327 57.16L41.7273 60.49Z" fill="#06B2BA"/>
<path opacity="0.6" d="M44.6272 67.4207L61.9128 69.5246L62.0444 68.4442L44.7587 66.3403L44.6272 67.4207Z" fill="#06B2BA"/>
<path opacity="0.6" d="M49.0256 70.3304L61.6299 71.8646L61.7176 71.1436L49.1134 69.6094L49.0256 70.3304Z" fill="#06B2BA"/>
</g>
<path opacity="0.2" d="M57.1583 34.6892C54.5876 34.6871 52.0416 35.1911 49.6655 36.1723C50.591 36.0396 51.5248 35.9725 52.4598 35.9717V35.9717C55.0404 35.9717 57.5958 36.4799 59.98 37.4674C62.3642 38.455 64.5305 39.9024 66.3553 41.727C68.1801 43.5517 69.6276 45.7179 70.6152 48.102C71.6027 50.486 72.111 53.0413 72.111 55.6217V86.8123H76.8095V54.3392C76.8095 49.1277 74.7391 44.1296 71.0538 40.4445C67.3685 36.7594 62.3701 34.6892 57.1583 34.6892Z" fill="black"/>
<path d="M20.6328 80.6113H77.0236V87.4471H13.7966C13.7966 85.6341 14.5169 83.8954 15.7989 82.6135C17.0809 81.3315 18.8197 80.6113 20.6328 80.6113V80.6113Z" fill="#06B2BA"/>
<path opacity="0.2" d="M20.6328 80.6113H77.0236V87.4471H13.7966C13.7966 85.6341 14.5169 83.8954 15.7989 82.6135C17.0809 81.3315 18.8197 80.6113 20.6328 80.6113V80.6113Z" fill="white"/>
<path d="M143.391 15.3946L142.743 15.7109L142.818 15.5778L142.761 15.5953L142.842 15.5364L151.571 0L156.034 3.80612L159.864 7.35051L158.765 7.88707L160 10.0661L143.391 15.3946Z" fill="url(#paint7_linear)"/>
<path d="M155.594 4.21182L159.093 7.45739L143.23 15.3423L151.672 4.52373L155.594 4.21182Z" fill="#06B2BA"/>
<path opacity="0.2" d="M155.594 4.21182L159.093 7.45739L143.23 15.3423L151.672 4.52373L155.594 4.21182Z" fill="black"/>
<path d="M151.51 0.730682L143.23 15.3423L155.594 4.21181L151.51 0.730682Z" fill="#06B2BA"/>
<path d="M159.195 9.96789L143.248 15.2354L156.578 5.28494L159.195 9.96789Z" fill="#06B2BA"/>
<path d="M26.5398 18.9696L27.5824 19.131L27.421 18.9783H27.5105L27.3709 18.9303L8.42415 0.964081L3.82599 8.2208L0 14.8406L1.77121 15.1154L0.985944 18.7013L26.5398 18.9696Z" fill="url(#paint8_linear)"/>
<path d="M4.61992 8.59811L1.12549 14.6552L26.7426 18.8256L10.2433 7.3374L4.61992 8.59811Z" fill="#06B2BA"/>
<path opacity="0.2" d="M4.61992 8.59811L1.12549 14.6552L26.7426 18.8256L10.2433 7.3374L4.61992 8.59811Z" fill="black"/>
<path d="M8.82783 1.96088L26.7428 18.8256L4.62012 8.59815L8.82783 1.96088Z" fill="#06B2BA"/>
<path d="M2.06982 18.2149L26.6726 18.686L3.70579 10.5285L2.06982 18.2149Z" fill="#06B2BA"/>
<path d="M171.763 87.4471H155.53V159H171.763V87.4471Z" fill="url(#paint9_linear)"/>
<path d="M170.694 87.4471H157.023V157.72H170.694V87.4471Z" fill="#ECEFF1"/>
<path d="M209.528 31.6988H136.419C133.906 31.7629 131.43 32.3148 129.127 33.3238C121.696 36.6173 117.37 41.7867 116.149 53.2508V79.7367L96.7765 79.5316C92.8807 79.5316 91.4563 85.6563 91.4563 89.7962H222.314V45.2852C222.314 37.782 216.597 31.6988 209.528 31.6988Z" fill="url(#paint10_linear)"/>
<path d="M139.081 34.4754H211.517C213.87 34.4754 216.127 35.4102 217.791 37.0742C219.456 38.7382 220.39 40.9951 220.39 43.3484V87.4471H139.081V34.4754Z" fill="#06B2BA"/>
<path d="M137.368 34.4754C142.58 34.4754 147.578 36.5457 151.263 40.2308C154.949 43.9159 157.019 48.914 157.019 54.1255V77.8303C157.019 80.3808 156.006 82.8269 154.202 84.6304C152.399 86.4339 149.952 87.4471 147.402 87.4471H127.334C124.783 87.4471 122.337 86.4339 120.533 84.6304C118.73 82.8269 117.717 80.3808 117.717 77.8303V54.1255C117.717 48.914 119.787 43.9159 123.472 40.2308C127.158 36.5457 132.156 34.4754 137.368 34.4754V34.4754Z" fill="#06B2BA"/>
<path opacity="0.2" d="M137.368 34.4754C142.58 34.4754 147.578 36.5457 151.263 40.2308C154.949 43.9159 157.019 48.914 157.019 54.1255V77.8303C157.019 80.3808 156.006 82.8269 154.202 84.6304C152.399 86.4339 149.952 87.4471 147.402 87.4471H127.334C124.783 87.4471 122.337 86.4339 120.533 84.6304C118.73 82.8269 117.717 80.3808 117.717 77.8303V54.1255C117.717 48.914 119.787 43.9159 123.472 40.2308C127.158 36.5457 132.156 34.4754 137.368 34.4754V34.4754Z" fill="black"/>
<path d="M189.706 27.4281H179.561H173.473V39.4921V54.3392H180.841V39.4921H189.706V27.4281Z" fill="url(#paint11_linear)"/>
<path d="M188.424 27.4281H179.879H174.753V38.5345V52.2039H179.879V38.5345H188.424V27.4281Z" fill="#FFCC80"/>
<path d="M117.876 44.5879L115.855 61.1905L142.872 64.4788L144.893 47.8762L117.876 44.5879Z" fill="url(#paint12_linear)"/>
<path d="M118.157 45.0409L116.271 60.5349L142.372 63.7117L144.258 48.2177L118.157 45.0409Z" fill="#FAF8E4"/>
<g opacity="0.6">
<path opacity="0.6" d="M118.842 48.8205L122.163 49.2248L122.462 46.7673L119.141 46.363L118.842 48.8205Z" fill="#06B2BA"/>
<path opacity="0.6" d="M120.984 53.9319L133.736 55.4839L133.833 54.6872L121.081 53.1351L120.984 53.9319Z" fill="#06B2BA"/>
<path opacity="0.6" d="M124.228 56.0797L133.526 57.2114L133.591 56.6809L124.293 55.5492L124.228 56.0797Z" fill="#06B2BA"/>
</g>
<path d="M128.884 48.24L126.863 64.8426L153.879 68.1309L155.9 51.5283L128.884 48.24Z" fill="url(#paint13_linear)"/>
<path d="M129.165 48.6951L127.279 64.1892L153.38 67.366L155.266 51.872L129.165 48.6951Z" fill="#FAF8E4"/>
<g opacity="0.6">
<path opacity="0.6" d="M129.852 52.4752L133.173 52.8795L133.472 50.422L130.151 50.0177L129.852 52.4752Z" fill="#06B2BA"/>
<path opacity="0.6" d="M131.994 57.5866L144.745 59.1386L144.842 58.3418L132.091 56.7898L131.994 57.5866Z" fill="#06B2BA"/>
<path opacity="0.6" d="M135.233 59.7341L144.531 60.8658L144.596 60.3353L135.298 59.2036L135.233 59.7341Z" fill="#06B2BA"/>
</g>
<path d="M105.495 49.8008L102.755 72.3057L139.375 76.7628L142.114 54.258L105.495 49.8008Z" fill="url(#paint14_linear)"/>
<path d="M105.878 50.4114L103.321 71.4158L138.7 75.7219L141.257 54.7175L105.878 50.4114Z" fill="white"/>
<g opacity="0.6">
<path opacity="0.6" d="M106.806 55.5365L111.308 56.0844L111.713 52.7543L107.212 52.2064L106.806 55.5365Z" fill="#06B2BA"/>
<path opacity="0.6" d="M109.707 62.4672L126.992 64.5711L127.124 63.4907L109.838 61.3868L109.707 62.4672Z" fill="#06B2BA"/>
<path opacity="0.6" d="M114.104 65.377L126.709 66.9111L126.797 66.1901L114.192 64.656L114.104 65.377Z" fill="#06B2BA"/>
</g>
<path d="M120.417 54.751L117.677 77.2559L154.297 81.7131L157.036 59.2082L120.417 54.751Z" fill="url(#paint15_linear)"/>
<path d="M120.798 55.3657L118.241 76.3701L153.62 80.6762L156.177 59.6718L120.798 55.3657Z" fill="white"/>
<g opacity="0.6">
<path opacity="0.6" d="M121.727 60.49L126.229 61.0379L126.634 57.7079L122.133 57.16L121.727 60.49Z" fill="#06B2BA"/>
<path opacity="0.6" d="M124.627 67.4207L141.913 69.5246L142.044 68.4442L124.759 66.3403L124.627 67.4207Z" fill="#06B2BA"/>
<path opacity="0.6" d="M129.026 70.3304L141.63 71.8646L141.718 71.1436L129.113 69.6094L129.026 70.3304Z" fill="#06B2BA"/>
</g>
<path opacity="0.2" d="M137.158 34.6892C134.588 34.6871 132.042 35.1911 129.666 36.1723C130.591 36.0396 131.525 35.9725 132.46 35.9717V35.9717C135.04 35.9717 137.596 36.4799 139.98 37.4674C142.364 38.455 144.531 39.9024 146.355 41.727C148.18 43.5517 149.628 45.7179 150.615 48.102C151.603 50.486 152.111 53.0413 152.111 55.6217V86.8123H156.81V54.3392C156.81 49.1277 154.739 44.1296 151.054 40.4445C147.368 36.7594 142.37 34.6892 137.158 34.6892Z" fill="black"/>
<path d="M100.633 80.6113H157.024V87.4471H93.7966C93.7966 85.6341 94.5169 83.8954 95.7989 82.6135C97.0809 81.3315 98.8197 80.6113 100.633 80.6113V80.6113Z" fill="#06B2BA"/>
<path opacity="0.2" d="M100.633 80.6113H157.024V87.4471H93.7966C93.7966 85.6341 94.5169 83.8954 95.7989 82.6135C97.0809 81.3315 98.8197 80.6113 100.633 80.6113V80.6113Z" fill="white"/>
<path d="M223.391 15.3946L222.743 15.7109L222.818 15.5778L222.761 15.5953L222.842 15.5364L231.571 0L236.034 3.80612L239.864 7.35051L238.765 7.88707L240 10.0661L223.391 15.3946Z" fill="url(#paint16_linear)"/>
<path d="M235.594 4.21182L239.093 7.45739L223.23 15.3423L231.672 4.52373L235.594 4.21182Z" fill="#06B2BA"/>
<path opacity="0.2" d="M235.594 4.21182L239.093 7.45739L223.23 15.3423L231.672 4.52373L235.594 4.21182Z" fill="black"/>
<path d="M231.51 0.730682L223.23 15.3423L235.594 4.21181L231.51 0.730682Z" fill="#06B2BA"/>
<path d="M239.195 9.96789L223.248 15.2354L236.578 5.28494L239.195 9.96789Z" fill="#06B2BA"/>
<path d="M106.54 18.9696L107.582 19.131L107.421 18.9783H107.51L107.371 18.9303L88.4242 0.964081L83.826 8.2208L80 14.8406L81.7712 15.1154L80.9859 18.7013L106.54 18.9696Z" fill="url(#paint17_linear)"/>
<path d="M84.6199 8.59811L81.1255 14.6552L106.743 18.8256L90.2433 7.3374L84.6199 8.59811Z" fill="#06B2BA"/>
<path opacity="0.2" d="M84.6199 8.59811L81.1255 14.6552L106.743 18.8256L90.2433 7.3374L84.6199 8.59811Z" fill="black"/>
<path d="M88.8278 1.96088L106.743 18.8256L84.6201 8.59815L88.8278 1.96088Z" fill="#06B2BA"/>
<path d="M82.0698 18.2149L106.673 18.686L83.7058 10.5285L82.0698 18.2149Z" fill="#06B2BA"/>
<defs>
<linearGradient id="paint0_linear" x1="83.6461" y1="159" x2="83.6461" y2="87.4471" gradientUnits="userSpaceOnUse">
<stop stop-color="#808080" stop-opacity="0.25"/>
<stop offset="0.54" stop-color="#808080" stop-opacity="0.12"/>
<stop offset="1" stop-color="#808080" stop-opacity="0.1"/>
</linearGradient>
<linearGradient id="paint1_linear" x1="31189.7" y1="21052.5" x2="109698" y2="21052.5" gradientUnits="userSpaceOnUse">
<stop stop-color="#808080" stop-opacity="0.25"/>
<stop offset="0.54" stop-color="#808080" stop-opacity="0.12"/>
<stop offset="1" stop-color="#808080" stop-opacity="0.1"/>
</linearGradient>
<linearGradient id="paint2_linear" x1="7653.76" y1="6731.8" x2="7653.76" y2="3411.5" gradientUnits="userSpaceOnUse">
<stop stop-color="#808080" stop-opacity="0.25"/>
<stop offset="0.54" stop-color="#808080" stop-opacity="0.12"/>
<stop offset="1" stop-color="#808080" stop-opacity="0.1"/>
</linearGradient>
<linearGradient id="paint3_linear" x1="-5618.85" y1="9832.82" x2="-5366.71" y2="7761.32" gradientUnits="userSpaceOnUse">
<stop stop-color="#808080" stop-opacity="0.25"/>
<stop offset="0.54" stop-color="#808080" stop-opacity="0.12"/>
<stop offset="1" stop-color="#808080" stop-opacity="0.1"/>
</linearGradient>
<linearGradient id="paint4_linear" x1="-4799.47" y1="10224.9" x2="-4547.34" y2="8153.42" gradientUnits="userSpaceOnUse">
<stop stop-color="#808080" stop-opacity="0.25"/>
<stop offset="0.54" stop-color="#808080" stop-opacity="0.12"/>
<stop offset="1" stop-color="#808080" stop-opacity="0.1"/>
</linearGradient>
<linearGradient id="paint5_linear" x1="-8577.35" y1="15352.7" x2="-8114.1" y2="11546.7" gradientUnits="userSpaceOnUse">
<stop stop-color="#808080" stop-opacity="0.25"/>
<stop offset="0.54" stop-color="#808080" stop-opacity="0.12"/>
<stop offset="1" stop-color="#808080" stop-opacity="0.1"/>
</linearGradient>
<linearGradient id="paint6_linear" x1="-7066.3" y1="16071.9" x2="-6603.05" y2="12265.9" gradientUnits="userSpaceOnUse">
<stop stop-color="#808080" stop-opacity="0.25"/>
<stop offset="0.54" stop-color="#808080" stop-opacity="0.12"/>
<stop offset="1" stop-color="#808080" stop-opacity="0.1"/>
</linearGradient>
<linearGradient id="paint7_linear" x1="-2500.66" y1="11997.1" x2="-3209.33" y2="11391" gradientUnits="userSpaceOnUse">
<stop stop-color="#808080" stop-opacity="0.25"/>
<stop offset="0.54" stop-color="#808080" stop-opacity="0.12"/>
<stop offset="1" stop-color="#808080" stop-opacity="0.1"/>
</linearGradient>
<linearGradient id="paint8_linear" x1="1072.26" y1="13837.5" x2="1917.8" y2="12503" gradientUnits="userSpaceOnUse">
<stop stop-color="#808080" stop-opacity="0.25"/>
<stop offset="0.54" stop-color="#808080" stop-opacity="0.12"/>
<stop offset="1" stop-color="#808080" stop-opacity="0.1"/>
</linearGradient>
<linearGradient id="paint9_linear" x1="163.646" y1="159" x2="163.646" y2="87.4471" gradientUnits="userSpaceOnUse">
<stop stop-color="#808080" stop-opacity="0.25"/>
<stop offset="0.54" stop-color="#808080" stop-opacity="0.12"/>
<stop offset="1" stop-color="#808080" stop-opacity="0.1"/>
</linearGradient>
<linearGradient id="paint10_linear" x1="31269.7" y1="21052.5" x2="109778" y2="21052.5" gradientUnits="userSpaceOnUse">
<stop stop-color="#808080" stop-opacity="0.25"/>
<stop offset="0.54" stop-color="#808080" stop-opacity="0.12"/>
<stop offset="1" stop-color="#808080" stop-opacity="0.1"/>
</linearGradient>
<linearGradient id="paint11_linear" x1="7733.76" y1="6731.8" x2="7733.76" y2="3411.5" gradientUnits="userSpaceOnUse">
<stop stop-color="#808080" stop-opacity="0.25"/>
<stop offset="0.54" stop-color="#808080" stop-opacity="0.12"/>
<stop offset="1" stop-color="#808080" stop-opacity="0.1"/>
</linearGradient>
<linearGradient id="paint12_linear" x1="-5538.85" y1="9832.82" x2="-5286.71" y2="7761.32" gradientUnits="userSpaceOnUse">
<stop stop-color="#808080" stop-opacity="0.25"/>
<stop offset="0.54" stop-color="#808080" stop-opacity="0.12"/>
<stop offset="1" stop-color="#808080" stop-opacity="0.1"/>
</linearGradient>
<linearGradient id="paint13_linear" x1="-4719.47" y1="10224.9" x2="-4467.34" y2="8153.42" gradientUnits="userSpaceOnUse">
<stop stop-color="#808080" stop-opacity="0.25"/>
<stop offset="0.54" stop-color="#808080" stop-opacity="0.12"/>
<stop offset="1" stop-color="#808080" stop-opacity="0.1"/>
</linearGradient>
<linearGradient id="paint14_linear" x1="-8497.35" y1="15352.7" x2="-8034.1" y2="11546.7" gradientUnits="userSpaceOnUse">
<stop stop-color="#808080" stop-opacity="0.25"/>
<stop offset="0.54" stop-color="#808080" stop-opacity="0.12"/>
<stop offset="1" stop-color="#808080" stop-opacity="0.1"/>
</linearGradient>
<linearGradient id="paint15_linear" x1="-6986.3" y1="16071.9" x2="-6523.05" y2="12265.9" gradientUnits="userSpaceOnUse">
<stop stop-color="#808080" stop-opacity="0.25"/>
<stop offset="0.54" stop-color="#808080" stop-opacity="0.12"/>
<stop offset="1" stop-color="#808080" stop-opacity="0.1"/>
</linearGradient>
<linearGradient id="paint16_linear" x1="-2420.66" y1="11997.1" x2="-3129.33" y2="11391" gradientUnits="userSpaceOnUse">
<stop stop-color="#808080" stop-opacity="0.25"/>
<stop offset="0.54" stop-color="#808080" stop-opacity="0.12"/>
<stop offset="1" stop-color="#808080" stop-opacity="0.1"/>
</linearGradient>
<linearGradient id="paint17_linear" x1="1152.26" y1="13837.5" x2="1997.8" y2="12503" gradientUnits="userSpaceOnUse">
<stop stop-color="#808080" stop-opacity="0.25"/>
<stop offset="0.54" stop-color="#808080" stop-opacity="0.12"/>
<stop offset="1" stop-color="#808080" stop-opacity="0.1"/>
</linearGradient>
</defs>
</svg>
