<svg width="160" height="159" viewBox="0 0 160 159" fill="none" xmlns="http://www.w3.org/2000/svg">
<path d="M91.7628 87.4471H75.5297V159H91.7628V87.4471Z" fill="url(#paint0_linear)"/>
<path d="M90.6937 87.4471H77.0235V157.72H90.6937V87.4471Z" fill="#ECEFF1"/>
<path d="M129.528 31.6988H56.4193C53.9063 31.7629 51.4297 32.3148 49.1273 33.3238C41.6956 36.6173 37.3701 41.7867 36.1486 53.2508V79.7367L16.7765 79.5316C12.8807 79.5316 11.4563 85.6563 11.4563 89.7962H142.314V45.2852C142.314 37.782 136.597 31.6988 129.528 31.6988Z" fill="url(#paint1_linear)"/>
<path d="M59.0804 34.4754H131.517C133.87 34.4754 136.127 35.4102 137.791 37.0742C139.455 38.7382 140.39 40.9951 140.39 43.3484V87.4471H59.0804V34.4754Z" fill="#06B2BA"/>
<path d="M57.3678 34.4754C62.5797 34.4754 67.578 36.5457 71.2634 40.2308C74.9487 43.9159 77.0191 48.914 77.0191 54.1255V77.8303C77.0191 80.3808 76.0058 82.8269 74.2022 84.6304C72.3986 86.4339 69.9524 87.4471 67.4018 87.4471H47.3339C44.7832 87.4471 42.337 86.4339 40.5334 84.6304C38.7298 82.8269 37.7166 80.3808 37.7166 77.8303V54.1255C37.7166 48.914 39.7869 43.9159 43.4723 40.2308C47.1576 36.5457 52.156 34.4754 57.3678 34.4754Z" fill="#06B2BA"/>
<path opacity="0.2" d="M57.3678 34.4754C62.5797 34.4754 67.578 36.5457 71.2634 40.2308C74.9487 43.9159 77.0191 48.914 77.0191 54.1255V77.8303C77.0191 80.3808 76.0058 82.8269 74.2022 84.6304C72.3986 86.4339 69.9524 87.4471 67.4018 87.4471H47.3339C44.7832 87.4471 42.337 86.4339 40.5334 84.6304C38.7298 82.8269 37.7166 80.3808 37.7166 77.8303V54.1255C37.7166 48.914 39.7869 43.9159 43.4723 40.2308C47.1576 36.5457 52.156 34.4754 57.3678 34.4754Z" fill="black"/>
<path d="M109.706 27.4281H99.5609H93.4729V39.4921V54.3392H100.841V39.4921H109.706V27.4281Z" fill="url(#paint2_linear)"/>
<path d="M108.424 27.4281H99.8795H94.7534V38.5346V52.2039H99.8795V38.5346H108.424V27.4281Z" fill="#FFCC80"/>
<path d="M37.8761 44.5879L35.8551 61.1905L62.8717 64.4788L64.8927 47.8762L37.8761 44.5879Z" fill="url(#paint3_linear)"/>
<path d="M38.1572 45.0409L36.2711 60.5349L62.3718 63.7117L64.2578 48.2177L38.1572 45.0409Z" fill="#FAF8E4"/>
<g opacity="0.6">
<path opacity="0.6" d="M38.8417 48.8205L42.1633 49.2248L42.4625 46.7673L39.1409 46.363L38.8417 48.8205Z" fill="#06B2BA"/>
<path opacity="0.6" d="M40.984 53.9319L53.7355 55.484L53.8325 54.6872L41.0809 53.1351L40.984 53.9319Z" fill="#06B2BA"/>
<path opacity="0.6" d="M44.2281 56.0797L53.5259 57.2114L53.5905 56.6809L44.2927 55.5492L44.2281 56.0797Z" fill="#06B2BA"/>
</g>
<path d="M48.8839 48.24L46.8629 64.8426L73.8794 68.1309L75.9005 51.5283L48.8839 48.24Z" fill="url(#paint4_linear)"/>
<path d="M49.1652 48.6951L47.2791 64.1892L73.3798 67.366L75.2658 51.872L49.1652 48.6951Z" fill="#FAF8E4"/>
<g opacity="0.6">
<path opacity="0.6" d="M49.8514 52.4752L53.173 52.8794L53.4722 50.422L50.1506 50.0177L49.8514 52.4752Z" fill="#06B2BA"/>
<path opacity="0.6" d="M51.9936 57.5866L64.7452 59.1386L64.8422 58.3418L52.0906 56.7898L51.9936 57.5866Z" fill="#06B2BA"/>
<path opacity="0.6" d="M55.2332 59.7341L64.5311 60.8658L64.5956 60.3353L55.2978 59.2036L55.2332 59.7341Z" fill="#06B2BA"/>
</g>
<path d="M25.4945 49.8008L22.755 72.3057L59.3747 76.7628L62.1142 54.258L25.4945 49.8008Z" fill="url(#paint5_linear)"/>
<path d="M25.878 50.4114L23.3212 71.4158L58.7002 75.7219L61.257 54.7175L25.878 50.4114Z" fill="white"/>
<g opacity="0.6">
<path opacity="0.6" d="M26.8062 55.5365L31.3078 56.0844L31.7132 52.7544L27.2115 52.2064L26.8062 55.5365Z" fill="#06B2BA"/>
<path opacity="0.6" d="M29.7063 62.4672L46.992 64.5711L47.1235 63.4907L29.8378 61.3868L29.7063 62.4672Z" fill="#06B2BA"/>
<path opacity="0.6" d="M34.1045 65.377L46.7087 66.9111L46.7965 66.1901L34.1922 64.656L34.1045 65.377Z" fill="#06B2BA"/>
</g>
<path d="M40.4167 54.751L37.6772 77.2559L74.297 81.7131L77.0365 59.2082L40.4167 54.751Z" fill="url(#paint6_linear)"/>
<path d="M40.7977 55.3657L38.2408 76.3701L73.6199 80.6762L76.1767 59.6718L40.7977 55.3657Z" fill="white"/>
<g opacity="0.6">
<path opacity="0.6" d="M41.7274 60.49L46.2291 61.0379L46.6344 57.7079L42.1327 57.1599L41.7274 60.49Z" fill="#06B2BA"/>
<path opacity="0.6" d="M44.6273 67.4207L61.913 69.5246L62.0445 68.4442L44.7588 66.3403L44.6273 67.4207Z" fill="#06B2BA"/>
<path opacity="0.6" d="M49.0258 70.3305L61.6301 71.8646L61.7178 71.1436L49.1136 69.6095L49.0258 70.3305Z" fill="#06B2BA"/>
</g>
<path opacity="0.2" d="M57.1584 34.6892C54.5877 34.6871 52.0417 35.1911 49.6656 36.1724C50.5912 36.0396 51.5249 35.9725 52.4599 35.9717C55.0405 35.9717 57.5959 36.48 59.9801 37.4675C62.3643 38.455 64.5306 39.9024 66.3554 41.7271C68.1802 43.5517 69.6277 45.7179 70.6153 48.102C71.6028 50.4861 72.1111 53.0413 72.1111 55.6218V86.8124H76.8096V54.3392C76.8096 49.1277 74.7393 44.1296 71.0539 40.4445C67.3686 36.7594 62.3702 34.6892 57.1584 34.6892Z" fill="black"/>
<path d="M20.6328 80.6113H77.0236V87.4471H13.7967C13.7967 85.6341 14.5169 83.8954 15.7989 82.6135C17.081 81.3315 18.8198 80.6113 20.6328 80.6113Z" fill="#06B2BA"/>
<path opacity="0.2" d="M20.6328 80.6113H77.0236V87.4471H13.7967C13.7967 85.6341 14.5169 83.8954 15.7989 82.6135C17.081 81.3315 18.8198 80.6113 20.6328 80.6113Z" fill="white"/>
<path d="M143.391 15.3946L142.744 15.7109L142.818 15.5778L142.761 15.5953L142.842 15.5364L151.571 0L156.034 3.80612L159.864 7.35051L158.765 7.88707L160 10.0661L143.391 15.3946Z" fill="url(#paint7_linear)"/>
<path d="M155.594 4.21182L159.093 7.45739L143.23 15.3423L151.672 4.52373L155.594 4.21182Z" fill="#06B2BA"/>
<path opacity="0.2" d="M155.594 4.21182L159.093 7.45739L143.23 15.3423L151.672 4.52373L155.594 4.21182Z" fill="black"/>
<path d="M151.511 0.730682L143.23 15.3423L155.594 4.21181L151.511 0.730682Z" fill="#06B2BA"/>
<path d="M159.195 9.96789L143.248 15.2354L156.578 5.28494L159.195 9.96789Z" fill="#06B2BA"/>
<path d="M26.5398 18.9696L27.5824 19.131L27.421 18.9783H27.5105L27.3709 18.9303L8.42415 0.964081L3.82599 8.2208L0 14.8406L1.77121 15.1154L0.985944 18.7013L26.5398 18.9696Z" fill="url(#paint8_linear)"/>
<path d="M4.62001 8.59811L1.12558 14.6552L26.7427 18.8256L10.2434 7.3374L4.62001 8.59811Z" fill="#06B2BA"/>
<path opacity="0.2" d="M4.62001 8.59811L1.12558 14.6552L26.7427 18.8256L10.2434 7.3374L4.62001 8.59811Z" fill="black"/>
<path d="M8.8278 1.96086L26.7428 18.8256L4.62009 8.59813L8.8278 1.96086Z" fill="#06B2BA"/>
<path d="M2.06992 18.2149L26.6727 18.686L3.70589 10.5285L2.06992 18.2149Z" fill="#06B2BA"/>
<defs>
<linearGradient id="paint0_linear" x1="83.6463" y1="159" x2="83.6463" y2="87.4471" gradientUnits="userSpaceOnUse">
<stop stop-color="#808080" stop-opacity="0.25"/>
<stop offset="0.54" stop-color="#808080" stop-opacity="0.12"/>
<stop offset="1" stop-color="#808080" stop-opacity="0.1"/>
</linearGradient>
<linearGradient id="paint1_linear" x1="31189.7" y1="21052.5" x2="109698" y2="21052.5" gradientUnits="userSpaceOnUse">
<stop stop-color="#808080" stop-opacity="0.25"/>
<stop offset="0.54" stop-color="#808080" stop-opacity="0.12"/>
<stop offset="1" stop-color="#808080" stop-opacity="0.1"/>
</linearGradient>
<linearGradient id="paint2_linear" x1="7653.76" y1="6731.8" x2="7653.76" y2="3411.51" gradientUnits="userSpaceOnUse">
<stop stop-color="#808080" stop-opacity="0.25"/>
<stop offset="0.54" stop-color="#808080" stop-opacity="0.12"/>
<stop offset="1" stop-color="#808080" stop-opacity="0.1"/>
</linearGradient>
<linearGradient id="paint3_linear" x1="-5618.85" y1="9832.82" x2="-5366.71" y2="7761.32" gradientUnits="userSpaceOnUse">
<stop stop-color="#808080" stop-opacity="0.25"/>
<stop offset="0.54" stop-color="#808080" stop-opacity="0.12"/>
<stop offset="1" stop-color="#808080" stop-opacity="0.1"/>
</linearGradient>
<linearGradient id="paint4_linear" x1="-4799.47" y1="10224.9" x2="-4547.34" y2="8153.42" gradientUnits="userSpaceOnUse">
<stop stop-color="#808080" stop-opacity="0.25"/>
<stop offset="0.54" stop-color="#808080" stop-opacity="0.12"/>
<stop offset="1" stop-color="#808080" stop-opacity="0.1"/>
</linearGradient>
<linearGradient id="paint5_linear" x1="-8577.35" y1="15352.7" x2="-8114.1" y2="11546.7" gradientUnits="userSpaceOnUse">
<stop stop-color="#808080" stop-opacity="0.25"/>
<stop offset="0.54" stop-color="#808080" stop-opacity="0.12"/>
<stop offset="1" stop-color="#808080" stop-opacity="0.1"/>
</linearGradient>
<linearGradient id="paint6_linear" x1="-7066.3" y1="16071.9" x2="-6603.05" y2="12265.9" gradientUnits="userSpaceOnUse">
<stop stop-color="#808080" stop-opacity="0.25"/>
<stop offset="0.54" stop-color="#808080" stop-opacity="0.12"/>
<stop offset="1" stop-color="#808080" stop-opacity="0.1"/>
</linearGradient>
<linearGradient id="paint7_linear" x1="-2500.66" y1="11997.1" x2="-3209.33" y2="11391" gradientUnits="userSpaceOnUse">
<stop stop-color="#808080" stop-opacity="0.25"/>
<stop offset="0.54" stop-color="#808080" stop-opacity="0.12"/>
<stop offset="1" stop-color="#808080" stop-opacity="0.1"/>
</linearGradient>
<linearGradient id="paint8_linear" x1="1072.26" y1="13837.5" x2="1917.8" y2="12503" gradientUnits="userSpaceOnUse">
<stop stop-color="#808080" stop-opacity="0.25"/>
<stop offset="0.54" stop-color="#808080" stop-opacity="0.12"/>
<stop offset="1" stop-color="#808080" stop-opacity="0.1"/>
</linearGradient>
</defs>
</svg>
