<svg width="445" height="375" viewBox="0 0 445 375" fill="none" xmlns="http://www.w3.org/2000/svg">
<g clip-path="url(#clip0)">
<path opacity="0.1" d="M325.566 0.494898C304.691 -0.516617 283.455 -0.347287 263.297 4.63899C243.138 9.62526 223.968 19.8875 212.496 35.6261C205.927 44.6361 202.007 55.188 194.357 63.4761C181.088 77.8468 159.398 82.784 139.382 87.7391C92.3768 99.3247 45.1089 116.066 11.013 147.427C6.11802 151.923 1.34762 157.052 0.239569 163.268C-1.46033 172.827 6.02457 181.77 14.3283 187.888C22.632 194.006 32.4576 198.859 38.603 206.795C46.4395 216.914 46.88 230.287 44.655 242.443C42.43 254.599 37.851 266.425 36.645 278.715C36.3469 281.745 36.2757 284.904 37.5884 287.707C39.3284 291.423 43.1954 293.945 46.9868 296.067C60.4288 303.622 74.9332 309.1 90.0094 312.318C115.984 317.892 143.071 316.845 169.664 319.135C196.258 321.426 223.954 327.833 242.644 345.007C254.108 355.536 264.449 370.896 280.794 370.375C289.952 370.085 298.042 364.48 307.178 363.856C317.462 363.152 326.758 368.757 336.455 371.952C350.228 376.497 366.176 376.056 379.09 369.791C392.004 363.526 401.38 351.254 402.137 338.064C402.876 325.142 395.88 313.053 391.84 300.634C378.587 259.946 397.229 216.95 415.763 177.969C434.297 138.988 453.423 96.3125 441.092 55.3885C426.776 7.92307 371.325 2.71399 325.566 0.494898Z" fill="#06B2BA"/>
<path d="M105.385 240.13C105.385 240.13 89.9612 231.664 85.3911 218.665C83.5087 213.205 79.9078 208.503 75.1293 205.266C72.849 203.747 70.4344 202.44 67.9159 201.363" stroke="#535461" stroke-width="2" stroke-miterlimit="10"/>
<path d="M64.97 193.195C66.4296 194.665 68.0004 201.568 68.0004 201.568C68.0004 201.568 61.1163 199.95 59.6567 198.484C58.9805 197.774 58.6091 196.826 58.6223 195.845C58.6355 194.864 59.0321 193.926 59.7272 193.234C60.4223 192.543 61.3604 192.151 62.3405 192.143C63.3206 192.136 64.2646 192.513 64.97 193.195V193.195Z" fill="#06B2BA"/>
<path d="M77.4567 196.96C77.9017 198.988 75.4542 205.636 75.4542 205.636C75.4542 205.636 70.5592 200.534 70.1142 198.506C69.9952 198.018 69.9755 197.511 70.0561 197.014C70.1367 196.518 70.3161 196.043 70.5836 195.618C70.8511 195.193 71.2012 194.825 71.6132 194.538C72.0252 194.251 72.4906 194.049 72.9819 193.946C73.4731 193.842 73.9802 193.838 74.4729 193.935C74.9656 194.031 75.4339 194.226 75.8501 194.507C76.2662 194.788 76.6217 195.15 76.8954 195.572C77.1691 195.993 77.3555 196.465 77.4434 196.96H77.4567Z" fill="#06B2BA"/>
<path d="M91.0648 211.054C90.4107 213.02 84.9639 217.534 84.9639 217.534C84.9639 217.534 83.3041 210.649 83.9582 208.684C84.2721 207.738 84.9483 206.957 85.8379 206.51C86.7275 206.064 87.7577 205.99 88.7019 206.304C89.646 206.619 90.4268 207.296 90.8725 208.187C91.3181 209.077 91.3921 210.109 91.0782 211.054H91.0648Z" fill="#06B2BA"/>
<path d="M98.968 224.039C98.6565 226.085 94.0463 231.459 94.0463 231.459C94.0463 231.459 91.2517 224.957 91.5632 222.907C91.7385 221.947 92.2806 221.093 93.0743 220.527C93.868 219.96 94.8509 219.726 95.8144 219.873C96.778 220.021 97.6463 220.538 98.2351 221.316C98.8238 222.094 99.0868 223.071 98.968 224.039V224.039Z" fill="#06B2BA"/>
<path d="M70.1587 211.473C72.2279 211.451 78.1687 207.632 78.1687 207.632C78.1687 207.632 72.13 203.952 70.0608 203.974C69.0891 204.017 68.1721 204.436 67.5036 205.143C66.835 205.851 66.4674 206.791 66.4784 207.765C66.4894 208.738 66.8781 209.67 67.5624 210.362C68.2467 211.054 69.1729 211.453 70.1453 211.473H70.1587Z" fill="#06B2BA"/>
<path d="M79.5927 226.544C81.5596 225.902 86.0986 220.474 86.0986 220.474C86.0986 220.474 79.2367 218.772 77.2698 219.414C76.3573 219.747 75.6097 220.423 75.1848 221.297C74.7598 222.172 74.6907 223.178 74.992 224.102C75.2933 225.027 75.9414 225.798 76.7997 226.254C77.658 226.709 78.6594 226.813 79.5927 226.544V226.544Z" fill="#06B2BA"/>
<path d="M90.78 239.934C92.827 239.635 98.216 235.032 98.216 235.032C98.216 235.032 91.7368 232.194 89.6898 232.492C89.2018 232.564 88.7327 232.731 88.3093 232.984C87.8859 233.238 87.5164 233.572 87.222 233.968C86.9276 234.364 86.714 234.815 86.5934 235.294C86.4728 235.772 86.4476 236.27 86.5191 236.759C86.5907 237.248 86.7577 237.717 87.0106 238.141C87.2635 238.565 87.5973 238.935 87.9929 239.23C88.3886 239.525 88.8384 239.739 89.3166 239.86C89.7948 239.98 90.2921 240.006 90.78 239.934Z" fill="#06B2BA"/>
<path d="M117.511 203.711C117.511 203.711 106.831 189.706 107.913 175.977C108.401 170.221 107.011 164.463 103.952 159.565C102.482 157.252 100.803 155.079 98.9369 153.073" stroke="#535461" stroke-width="2" stroke-miterlimit="10"/>
<path d="M99.5599 144.41C100.299 146.344 98.9458 153.296 98.9458 153.296C98.9458 153.296 93.3032 149.027 92.5645 147.093C92.3655 146.628 92.2623 146.128 92.2611 145.623C92.2599 145.117 92.3607 144.617 92.5575 144.151C92.7544 143.686 93.0431 143.265 93.4064 142.914C93.7698 142.563 94.2002 142.289 94.6718 142.108C95.1435 141.928 95.6467 141.845 96.1512 141.865C96.6557 141.884 97.151 142.005 97.6076 142.221C98.0641 142.437 98.4724 142.743 98.8079 143.121C99.1434 143.498 99.3991 143.94 99.5599 144.419V144.41Z" fill="#06B2BA"/>
<path d="M109.439 152.912C108.994 154.94 104.099 160.042 104.099 160.042C104.099 160.042 101.682 153.389 102.11 151.362C102.205 150.873 102.397 150.408 102.673 149.995C102.95 149.581 103.306 149.227 103.721 148.952C104.135 148.678 104.6 148.488 105.089 148.396C105.577 148.303 106.079 148.308 106.566 148.412C107.052 148.515 107.513 148.715 107.922 148.998C108.33 149.282 108.678 149.644 108.946 150.064C109.213 150.484 109.394 150.952 109.479 151.443C109.564 151.934 109.55 152.436 109.439 152.921V152.912Z" fill="#06B2BA"/>
<path d="M116.181 171.32C114.788 172.853 107.979 174.769 107.979 174.769C107.979 174.769 109.247 167.804 110.649 166.272C110.976 165.892 111.375 165.581 111.824 165.358C112.273 165.136 112.761 165.005 113.261 164.975C113.761 164.944 114.262 165.014 114.734 165.181C115.206 165.348 115.64 165.607 116.011 165.945C116.381 166.282 116.68 166.691 116.89 167.146C117.1 167.601 117.217 168.094 117.234 168.595C117.25 169.096 117.166 169.595 116.987 170.063C116.808 170.531 116.537 170.959 116.19 171.32H116.181Z" fill="#06B2BA"/>
<path d="M118.152 186.399C117.039 188.146 110.654 191.185 110.654 191.185C110.654 191.185 110.729 184.105 111.842 182.358C112.395 181.561 113.234 181.01 114.184 180.82C115.133 180.63 116.12 180.816 116.936 181.338C117.752 181.86 118.334 182.678 118.561 183.621C118.788 184.564 118.641 185.558 118.152 186.395V186.399Z" fill="#06B2BA"/>
<path d="M96.8987 163.224C98.7989 164.039 105.799 162.965 105.799 162.965C105.799 162.965 101.763 157.15 99.8624 156.335C98.9548 155.971 97.9411 155.977 97.0378 156.351C96.1345 156.726 95.413 157.439 95.0275 158.338C94.6419 159.238 94.6227 160.253 94.9739 161.166C95.3252 162.08 96.0191 162.82 96.9076 163.228L96.8987 163.224Z" fill="#06B2BA"/>
<path d="M99.4264 180.816C101.482 181.025 107.832 177.906 107.832 177.906C107.832 177.906 102.243 173.566 100.187 173.357C99.2209 173.296 98.2685 173.612 97.5298 174.239C96.7911 174.866 96.3236 175.755 96.2252 176.72C96.1268 177.685 96.4051 178.65 97.0019 179.414C97.5987 180.177 98.4676 180.68 99.4264 180.816V180.816Z" fill="#06B2BA"/>
<path d="M104.228 197.602C106.222 198.159 113.003 196.154 113.003 196.154C113.003 196.154 108.228 190.931 106.235 190.361C105.757 190.215 105.255 190.167 104.758 190.219C104.261 190.271 103.78 190.422 103.342 190.663C102.904 190.904 102.519 191.23 102.209 191.622C101.899 192.014 101.67 192.464 101.536 192.946C101.403 193.428 101.366 193.931 101.43 194.428C101.493 194.924 101.655 195.402 101.906 195.835C102.157 196.267 102.491 196.645 102.89 196.946C103.289 197.248 103.744 197.466 104.228 197.588V197.602Z" fill="#06B2BA"/>
<path d="M314.517 222.039C314.517 222.039 312.359 204.553 320.204 193.244C323.524 188.521 325.225 182.846 325.05 177.073C324.946 174.333 324.592 171.607 323.991 168.932" stroke="#535461" stroke-width="2" stroke-miterlimit="10"/>
<path d="M328.891 161.771C328.552 163.816 323.884 169.132 323.884 169.132C323.884 169.132 321.165 162.595 321.504 160.555C321.687 159.594 322.239 158.742 323.04 158.183C323.841 157.623 324.829 157.399 325.794 157.558C326.758 157.717 327.621 158.247 328.201 159.035C328.78 159.823 329.029 160.806 328.895 161.775L328.891 161.771Z" fill="#06B2BA"/>
<path d="M333.136 174.096C331.743 175.629 324.939 177.55 324.939 177.55C324.939 177.55 326.203 170.585 327.609 169.052C328.288 168.361 329.208 167.96 330.176 167.933C331.144 167.906 332.084 168.255 332.8 168.908C333.517 169.56 333.953 170.464 334.018 171.432C334.083 172.399 333.772 173.354 333.149 174.096H333.136Z" fill="#06B2BA"/>
<path d="M329.683 193.4C327.707 194.019 320.867 192.237 320.867 192.237C320.867 192.237 325.473 186.863 327.444 186.243C328.376 186.002 329.365 186.128 330.206 186.597C331.047 187.065 331.675 187.84 331.961 188.76C332.248 189.68 332.169 190.675 331.742 191.539C331.316 192.403 330.573 193.069 329.669 193.4H329.683Z" fill="#06B2BA"/>
<path d="M323.786 207.414C321.944 208.359 314.886 207.757 314.886 207.757C314.886 207.757 318.518 201.679 320.36 200.734C320.798 200.51 321.276 200.374 321.767 200.335C322.258 200.295 322.751 200.353 323.22 200.505C323.688 200.656 324.122 200.899 324.497 201.219C324.872 201.538 325.18 201.929 325.404 202.367C325.628 202.806 325.764 203.285 325.803 203.776C325.842 204.268 325.785 204.762 325.633 205.231C325.482 205.7 325.24 206.135 324.92 206.51C324.601 206.885 324.211 207.194 323.773 207.418L323.786 207.414Z" fill="#06B2BA"/>
<path d="M317.116 176.667C318.344 178.334 324.921 180.936 324.921 180.936C324.921 180.936 324.369 173.878 323.141 172.211C322.539 171.444 321.662 170.942 320.697 170.812C319.731 170.681 318.753 170.932 317.969 171.512C317.185 172.091 316.658 172.954 316.499 173.916C316.339 174.879 316.561 175.866 317.116 176.667V176.667Z" fill="#06B2BA"/>
<path d="M310.428 193.141C312.096 194.362 319.15 194.875 319.15 194.875C319.15 194.875 316.511 188.307 314.842 187.086C314.038 186.532 313.05 186.314 312.088 186.479C311.126 186.643 310.267 187.177 309.692 187.966C309.117 188.755 308.872 189.738 309.009 190.706C309.147 191.673 309.656 192.548 310.428 193.146V193.141Z" fill="#06B2BA"/>
<path d="M306.12 210.052C307.562 211.54 314.424 213.233 314.424 213.233C314.424 213.233 312.933 206.313 311.491 204.825C311.153 204.453 310.744 204.152 310.288 203.942C309.832 203.731 309.338 203.614 308.836 203.598C308.334 203.583 307.834 203.668 307.365 203.85C306.897 204.031 306.47 204.305 306.109 204.656C305.749 205.006 305.462 205.425 305.267 205.889C305.071 206.352 304.971 206.85 304.971 207.353C304.972 207.856 305.074 208.354 305.27 208.816C305.467 209.279 305.754 209.698 306.116 210.047L306.12 210.052Z" fill="#06B2BA"/>
<path d="M209.969 79.7626L87.9542 193.6V361.226H331.979V193.6L209.969 79.7626Z" fill="url(#paint0_linear)"/>
<path d="M329.367 358.214H90.5664V194.175L209.969 82.7748L329.367 194.175V358.214Z" fill="#E8EAF1"/>
<path opacity="0.1" d="M328.45 194.278H90.731V357.978H328.45V194.278Z" fill="black"/>
<path d="M257.237 63.565L281.934 63.565C284.847 63.565 287.208 61.2009 287.208 58.2846V33.5538C287.208 30.6375 284.847 28.2734 281.934 28.2734L257.237 28.2734C254.324 28.2734 251.964 30.6375 251.964 33.5538V58.2846C251.964 61.2009 254.324 63.565 257.237 63.565Z" fill="#06B2BA"/>
<path d="M219.857 107.234H244.554C247.467 107.234 249.828 104.87 249.828 101.953V77.2226C249.828 74.3064 247.467 71.9423 244.554 71.9423H219.857C216.944 71.9423 214.584 74.3064 214.584 77.2226V101.953C214.584 104.87 216.944 107.234 219.857 107.234Z" fill="#06B2BA"/>
<path d="M315.977 45.741L340.674 45.741C343.587 45.741 345.948 43.3768 345.948 40.4606V15.7297C345.948 12.8134 343.587 10.4494 340.674 10.4494L315.977 10.4494C313.064 10.4494 310.704 12.8134 310.704 15.7297V40.4606C310.704 43.3768 313.064 45.741 315.977 45.741Z" fill="#06B2BA"/>
<path opacity="0.5" d="M176.198 235.955H167.974V228.469C167.974 227.068 167.419 225.725 166.43 224.735C165.441 223.745 164.099 223.188 162.701 223.188H138.003C136.605 223.188 135.264 223.745 134.275 224.735C133.286 225.725 132.73 227.068 132.73 228.469V253.199C132.73 254.6 133.286 255.943 134.275 256.933C135.264 257.923 136.605 258.48 138.003 258.48H146.227V265.966C146.227 267.366 146.783 268.709 147.771 269.7C148.76 270.69 150.102 271.246 151.5 271.246H176.198C177.596 271.246 178.938 270.69 179.926 269.7C180.915 268.709 181.471 267.366 181.471 265.966V241.235C181.471 240.542 181.335 239.855 181.07 239.214C180.805 238.574 180.416 237.992 179.926 237.501C179.437 237.011 178.855 236.622 178.216 236.357C177.576 236.091 176.89 235.955 176.198 235.955V235.955Z" fill="#06B2BA"/>
<path opacity="0.5" d="M281.934 219.432H257.237C256.544 219.432 255.858 219.568 255.219 219.834C254.579 220.099 253.998 220.488 253.508 220.978C253.018 221.469 252.63 222.051 252.365 222.691C252.1 223.332 251.963 224.019 251.963 224.712V236.325H239.615C238.216 236.325 236.875 236.881 235.886 237.871C234.897 238.861 234.341 240.204 234.341 241.605V253.596H222.74C221.342 253.596 220 254.152 219.012 255.143C218.023 256.133 217.467 257.476 217.467 258.876V283.607C217.467 285.008 218.023 286.351 219.012 287.341C220 288.331 221.342 288.888 222.74 288.888H247.42C248.819 288.888 250.16 288.331 251.149 287.341C252.138 286.351 252.693 285.008 252.693 283.607V271.621H264.33C265.729 271.621 267.07 271.064 268.059 270.074C269.048 269.084 269.603 267.741 269.603 266.34V254.728H281.952C283.349 254.723 284.687 254.163 285.672 253.172C286.658 252.18 287.21 250.837 287.207 249.439V224.708C287.206 223.308 286.65 221.966 285.661 220.977C284.673 219.987 283.332 219.432 281.934 219.432V219.432Z" fill="#06B2BA"/>
<path d="M157.637 183.463C157.917 184.116 158.33 184.704 158.849 185.189C159.369 185.674 159.983 186.045 160.654 186.279C161.25 186.471 161.882 186.538 162.492 186.693C165.398 187.415 167.454 189.929 170.097 191.319C170.309 191.45 170.551 191.526 170.8 191.537H170.889C170.944 191.542 170.999 191.542 171.054 191.537C171.326 191.508 171.585 191.4 171.797 191.225L171.917 191.136C172.204 192.315 172.248 193.54 172.046 194.737C170.996 194.737 164.174 195.155 165.108 203.203C166.119 211.937 176.233 224.146 176.233 224.146C176.233 224.146 183.309 231.383 181.035 256.082L180.781 268.06C180.781 268.06 183.5 267.65 186.967 267.24C187.047 267.401 187.128 267.558 187.212 267.713C188.201 269.443 189.462 271.003 190.945 272.334L196.69 286.049C196.69 286.049 197.184 286.94 197.914 288.348C197.981 291.249 196.183 293.785 196.183 293.785C185.058 297.029 180.514 308.752 180.514 308.752C180.514 308.752 174.24 312.518 172.883 316.724C170.213 318.872 170.413 324.745 170.413 324.745C170.413 324.745 179.758 329.736 186.589 332.481C187.381 332.799 188.206 333.026 189.049 333.158L187.532 336.277C185.948 336.848 185.832 344.686 185.832 344.686C185.832 344.686 202.511 356.664 207.566 357.412C212.621 358.161 216.911 354.667 211.611 352.172C207.334 350.162 202.568 342.489 200.877 339.579C202.996 336.674 209.671 327.258 210.093 323.48C210.601 318.988 216.915 315.245 216.915 315.245C226.016 305.513 219.95 294.039 219.189 288.063C219.189 287.947 219.158 287.823 219.136 287.693C218.578 285.096 217.864 282.535 216.995 280.025C217.988 273.746 218.775 263.938 219.26 257.464C221.267 258.11 223.234 258.876 223.234 258.876C226.923 251.377 214.392 220.492 210.774 211.937C212.879 211.242 216.506 210.154 221.708 208.978C230.555 206.982 231.053 202.49 231.053 202.49L237.875 184.029C237.292 184.287 236.402 184.278 235.361 184.096C235.361 183.94 235.361 183.775 235.361 183.597C235.414 181.845 235.579 179.047 236.095 178.539C236.095 178.539 234.417 178.539 232.379 178.356V178.107L233.296 166.811C233.296 166.811 232.032 154.334 227.738 156.081C224.289 157.484 224.747 168.691 225.068 173.058C225.148 174.175 225.475 175.26 226.024 176.235L226.314 176.748L226.514 177.1C226.326 177.009 226.144 176.905 225.971 176.788V180.651C225.495 180.424 225.215 180.281 225.215 180.281C225.468 184.523 220.159 198.743 220.159 198.743C220.159 198.743 210.814 197.744 207.775 199.741C205.55 201.207 202.649 198.373 201.256 196.76L207.815 182.509C207.028 182.369 206.25 182.179 205.488 181.939C205.519 181.765 205.55 181.582 205.586 181.395C205.915 179.613 206.511 177.086 207.312 176.77C206.155 176.137 204.955 175.587 203.721 175.121C203.752 174.979 203.779 174.827 203.815 174.676C204.286 172.18 205.029 166.788 203.521 163.068C201.5 158.077 200.74 148.363 196.948 150.591C193.94 152.373 193.798 163.112 193.864 167.466C193.882 168.646 194.178 169.804 194.728 170.848L196.187 173.62L196.387 174.003L196.187 174.038V177.447C195.546 177.042 195.177 176.783 195.177 176.783C195.048 181.578 191.88 187.972 188.782 193.119L187.207 191.956L186.82 191.68C186.816 191.629 186.816 191.579 186.82 191.528C186.82 191.528 186.17 191.346 185.147 191.136C183.874 188.716 183.162 185.789 182.766 183.374C182.726 183.12 182.686 182.875 182.65 182.634C183.235 181.336 183.539 179.928 183.54 178.503C183.523 176.07 182.643 173.721 181.058 171.876C179.473 170.031 177.286 168.809 174.885 168.428C175.197 168.085 175.33 167.983 175.428 167.983H175.495C175.65 167.983 175.864 168.054 176.638 167.675C177.413 167.296 178.343 166.704 178.338 165.822C178.338 165.175 177.826 164.645 177.284 164.28C175.98 163.389 175.949 161.896 174.729 162.007C174.495 161.988 174.26 162.02 174.04 162.101C172.927 162.466 171.961 163.161 170.88 163.607C170.123 163.917 169.32 164.101 168.504 164.151C167.982 164.151 167.461 164.192 166.946 164.275C166.534 164.379 166.139 164.539 165.771 164.752C163.489 166 160.854 167.898 160.12 170.371C159.435 172.688 160.382 175.692 158.616 177.358C158.293 177.613 157.995 177.898 157.726 178.209C157.5 178.553 157.349 178.94 157.281 179.346C156.97 180.722 157.095 182.161 157.637 183.463V183.463ZM203.841 303.441C203.939 304.635 203.712 305.482 203.014 305.758C199.222 307.255 194.928 320.975 194.928 320.975L192.053 326.915C189.774 325.192 187.593 323.343 185.521 321.376L185.832 319.224C185.832 319.224 193.918 313.235 194.425 311.488C194.83 310.085 201.367 305.237 203.841 303.441Z" fill="url(#paint1_linear)"/>
<path d="M209.488 210.355C209.488 210.355 226.674 250.187 222.5 258.796C222.5 258.796 215.625 256.091 214.641 256.568C213.658 257.045 203.837 205.181 203.837 205.181L209.488 210.355Z" fill="#575988"/>
<path opacity="0.05" d="M209.488 210.355C209.488 210.355 226.674 250.187 222.5 258.796C222.5 258.796 215.625 256.091 214.641 256.568C213.658 257.045 203.837 205.181 203.837 205.181L209.488 210.355Z" fill="black"/>
<path d="M200.156 337.222C200.156 337.222 206.048 348.286 211.206 350.746C216.363 353.206 212.189 356.646 207.276 355.91C202.364 355.175 186.161 343.371 186.161 343.371C186.161 343.371 186.272 335.645 187.812 335.083C189.352 334.522 200.156 337.222 200.156 337.222Z" fill="#575988"/>
<path d="M184.675 319.273C184.675 319.273 193.023 327.633 196.69 328.372C200.357 329.112 193.499 334.027 186.869 331.322C180.238 328.617 171.156 323.702 171.156 323.702C171.156 323.702 170.911 315.833 175.085 315.098C179.259 314.363 184.675 319.273 184.675 319.273Z" fill="#575988"/>
<path d="M219.065 250.922C219.065 250.922 217.347 280.92 215.135 285.1C212.924 289.28 204.575 302.064 204.575 302.064C204.575 302.064 194.999 308.949 194.509 310.669C194.02 312.389 186.161 318.288 186.161 318.288L185.672 321.728C185.672 321.728 172.66 320.989 173.394 316.564C174.128 312.139 181.004 307.959 181.004 307.959C181.004 307.959 185.423 296.405 196.227 293.205C196.227 293.205 199.663 288.304 196.717 284.356C196.717 284.356 189.352 265.917 185.178 263.702C181.004 261.488 186.9 248.712 186.9 248.712L219.065 250.922Z" fill="#67647E"/>
<path opacity="0.05" d="M219.065 250.922C219.065 250.922 217.347 280.92 215.135 285.1C212.924 289.28 204.575 302.064 204.575 302.064C204.575 302.064 194.999 308.949 194.509 310.669C194.02 312.389 186.161 318.288 186.161 318.288L185.672 321.728C185.672 321.728 172.66 320.989 173.394 316.564C174.128 312.139 181.004 307.959 181.004 307.959C181.004 307.959 185.423 296.405 196.227 293.205C196.227 293.205 199.663 288.304 196.717 284.356C196.717 284.356 189.352 265.917 185.178 263.702C181.004 261.488 186.9 248.712 186.9 248.712L219.065 250.922Z" fill="black"/>
<path d="M194.999 320.013L187.14 336.5C188.368 340.68 200.152 339.205 200.152 339.205C200.152 339.205 209.239 326.911 209.728 322.486C210.218 318.061 216.359 314.371 216.359 314.371C225.197 304.782 219.305 293.473 218.584 287.573C218.584 287.462 218.553 287.337 218.531 287.208C217.876 283.251 213.903 271.866 210.814 263.341C208.732 257.598 207.045 253.15 207.045 253.15C207.045 253.15 190.58 253.89 187.158 259.79C185.583 262.49 186.268 265.306 187.514 267.561C188.474 269.264 189.7 270.801 191.145 272.115L196.734 285.608C196.734 285.608 206.556 303.557 202.871 305.032C199.186 306.507 194.999 320.013 194.999 320.013Z" fill="#67647E"/>
<path d="M224.324 174.226C224.404 175.321 224.721 176.385 225.255 177.345L225.535 177.853L226.919 180.353H231.338L231.431 179.19L232.321 168.05C232.321 168.05 231.093 155.755 226.919 157.475C223.568 158.875 224.017 169.921 224.324 174.226Z" fill="#F7C4A7"/>
<path opacity="0.1" d="M225.535 177.862L226.919 180.361H231.338L231.431 179.198C229.375 179.034 226.928 178.637 225.535 177.862Z" fill="black"/>
<path d="M225.201 177.902V183.556L234.288 186.016C234.288 186.016 234.288 185.428 234.315 184.608C234.368 182.884 234.528 180.125 235.027 179.626C235.022 179.622 227.658 179.622 225.201 177.902Z" fill="#E6E6F0"/>
<path opacity="0.1" d="M225.201 181.217V183.556L234.288 186.016C234.288 186.016 234.288 185.428 234.315 184.608C231.284 184.078 226.919 182.055 225.201 181.217Z" fill="black"/>
<path d="M172.215 190.548C173.995 195.73 171.677 198.065 171.677 198.065C171.677 198.065 193.775 199.54 188.373 195.606C185.218 193.306 183.821 188.24 183.207 184.425C182.945 182.837 182.785 181.235 182.726 179.626C182.726 179.626 165.068 179.368 168.731 184.296C170.202 186.191 171.377 188.299 172.215 190.548V190.548Z" fill="#F7C4A7"/>
<path opacity="0.1" d="M168.731 184.296C170.511 186.72 171.116 187.077 171.726 188.828C172.278 188.921 172.838 188.968 173.399 188.966C177.608 188.966 181.707 188.097 183.189 184.421C182.928 182.833 182.767 181.23 182.708 179.622C182.708 179.622 165.064 179.363 168.731 184.296Z" fill="black"/>
<path d="M173.884 189.706C179.443 189.706 183.95 185.193 183.95 179.626C183.95 174.059 179.443 169.547 173.884 169.547C168.325 169.547 163.818 174.059 163.818 179.626C163.818 185.193 168.325 189.706 173.884 189.706Z" fill="#F7C4A7"/>
<path d="M224.467 181.346C224.467 181.346 234.043 186.248 236.744 185.036L230.114 203.23C230.114 203.23 229.624 207.655 221.027 209.624C212.43 211.594 208.26 213.305 208.26 213.305L192.302 194.371L200.406 196.599C200.406 196.599 204.58 202.499 207.526 200.534C210.472 198.569 219.541 199.549 219.541 199.549C219.541 199.549 224.725 185.526 224.467 181.346Z" fill="#575988"/>
<path opacity="0.05" d="M224.467 181.346C224.467 181.346 234.043 186.248 236.744 185.036L230.114 203.23C230.114 203.23 229.624 207.655 221.027 209.624C212.43 211.594 208.26 213.305 208.26 213.305L192.302 194.371L200.406 196.599C200.406 196.599 204.58 202.499 207.526 200.534C210.472 198.569 219.541 199.549 219.541 199.549C219.541 199.549 224.725 185.526 224.467 181.346Z" fill="black"/>
<path opacity="0.1" d="M187.145 192.95C187.145 192.95 174.164 189.233 172.798 196.136C172.798 196.136 178.796 193.208 187.389 198.364C188.035 198.751 188.667 199.166 189.281 199.598C196.846 204.905 202.123 213.131 204.246 222.44L209.733 246.502L210.222 252.972C210.222 252.972 218.081 254.527 219.567 252.197C221.054 249.866 220.057 242.104 217.85 239.515C215.642 236.926 212.189 225.822 212.189 225.822L210.04 219.365C208.241 213.933 205.382 208.913 201.629 204.598V204.598L201.113 203.987C197.877 200.092 193.77 197.015 189.125 195.004C187.883 194.456 186.971 193.765 187.145 192.95Z" fill="black"/>
<path d="M187.145 192.46C187.145 192.46 174.164 188.743 172.798 195.646C172.798 195.646 178.796 192.718 187.389 197.874C188.035 198.261 188.667 198.676 189.281 199.108C196.846 204.415 202.123 212.641 204.246 221.949L209.733 246.012L210.222 252.482C210.222 252.482 218.081 254.037 219.567 251.707C221.054 249.376 220.057 241.614 217.85 239.025C215.642 236.436 212.203 225.305 212.203 225.305L210.04 218.875C208.241 213.443 205.382 208.423 201.629 204.108V204.108L201.109 203.479C197.871 199.591 193.766 196.52 189.125 194.514C187.883 193.961 186.971 193.293 187.145 192.46Z" fill="#E6E6F0"/>
<path opacity="0.1" d="M219.785 242.019L219.674 246.252L216.239 244.024C216.239 244.024 210.116 221.709 205.804 215.626C205.296 214.909 205.052 213.844 204.575 213.661L187.02 196.697V192.763C187.02 192.763 195.982 199.402 196.717 200.632C197.028 201.153 201.741 203.751 204.575 207.761C207.117 211.478 209.374 215.382 211.326 219.441L217.218 232.72L219.785 242.019Z" fill="black"/>
<path d="M187.02 192.531V196.341L204.82 213.429C205.292 213.612 205.541 214.682 206.048 215.395C210.36 221.481 216.484 243.793 216.484 243.793L219.919 246.021L220.026 241.788L217.467 232.506L211.575 219.227C209.623 215.168 207.366 211.264 204.825 207.548C201.99 203.537 197.26 200.939 196.966 200.418C196.33 199.357 189.401 194.282 187.505 192.901L187.02 192.531Z" fill="#787C9C"/>
<path opacity="0.1" d="M177.235 168.923C178.013 168.54 178.89 167.965 178.886 167.096C178.848 166.779 178.735 166.476 178.557 166.212C178.379 165.948 178.141 165.73 177.862 165.576C176.46 164.618 176.567 162.903 174.956 163.429C173.879 163.79 172.936 164.476 171.886 164.912C171.151 165.217 170.37 165.398 169.576 165.447C169.069 165.446 168.563 165.487 168.063 165.567C167.662 165.67 167.277 165.829 166.919 166.04C164.68 167.293 163.017 169.371 162.283 171.833C161.615 174.114 161.682 176.819 159.964 178.459C159.654 178.711 159.368 178.991 159.11 179.296C158.886 179.634 158.734 180.015 158.665 180.415C158.356 181.778 158.474 183.203 159.003 184.497C159.271 185.138 159.67 185.716 160.175 186.194C160.679 186.672 161.277 187.039 161.931 187.273C162.51 187.464 163.124 187.531 163.711 187.678C166.532 188.391 168.53 190.869 171.098 192.237C171.303 192.365 171.537 192.439 171.779 192.451C172.044 192.423 172.296 192.315 172.5 192.143C173.492 191.43 174.311 190.329 174.28 189.104C174.199 188.34 173.975 187.598 173.621 186.916C173.084 185.639 172.672 184.312 172.393 182.955C172.304 182.643 172.295 182.313 172.366 181.997C172.553 181.4 173.212 181.106 173.67 180.7C174.56 179.894 174.645 178.517 174.324 177.371C174.004 176.226 173.327 175.219 172.825 174.141C172.651 173.817 172.549 173.46 172.526 173.094C172.526 171.654 174.467 170.866 175.285 169.925C176.42 168.647 175.717 169.676 177.235 168.923Z" fill="black"/>
<path d="M176.99 168.923C177.769 168.54 178.645 167.965 178.641 167.096C178.603 166.779 178.491 166.476 178.313 166.212C178.135 165.948 177.896 165.73 177.617 165.576C176.216 164.618 176.322 162.903 174.711 163.429C173.635 163.79 172.691 164.476 171.641 164.912C170.906 165.217 170.125 165.398 169.331 165.447C168.824 165.478 167.187 164.703 166.693 164.819C166.291 164.922 165.906 165.081 165.549 165.291C163.31 166.545 161.646 168.623 160.912 171.084C160.245 173.366 160.712 176.222 158.994 177.862C158.705 178.138 159.096 178.976 158.865 179.301C158.641 179.639 158.49 180.02 158.42 180.419C158.111 181.782 158.229 183.208 158.758 184.501C159.027 185.142 159.426 185.72 159.93 186.198C160.434 186.676 161.032 187.044 161.686 187.277C162.265 187.469 162.879 187.536 163.466 187.683C166.288 188.396 168.286 190.873 170.853 192.241C171.058 192.37 171.293 192.444 171.534 192.455C171.8 192.427 172.051 192.32 172.255 192.148C173.247 191.435 174.066 190.334 174.035 189.109C173.954 188.344 173.731 187.602 173.376 186.921C172.839 185.644 172.427 184.317 172.148 182.959C172.059 182.647 172.05 182.318 172.122 182.001C172.308 181.404 172.967 181.11 173.425 180.705C174.315 179.898 174.4 178.521 174.08 177.376C173.759 176.231 173.083 175.224 172.58 174.145C172.406 173.822 172.304 173.465 172.282 173.098C172.282 171.659 174.222 170.87 175.041 169.93C176.175 168.647 175.472 169.676 176.99 168.923Z" fill="#B96B6B"/>
<path opacity="0.1" d="M187.501 267.543C191.991 267.009 197.669 266.487 200.157 266.906C204.162 267.575 209.791 263.996 210.801 263.341C208.718 257.598 207.032 253.15 207.032 253.15C207.032 253.15 190.567 253.89 187.145 259.79C185.565 262.477 186.273 265.289 187.501 267.543Z" fill="black"/>
<path d="M166.029 203.965C167.013 212.57 176.834 224.619 176.834 224.619C176.834 224.619 183.709 231.748 181.498 256.091L181.253 267.891C181.253 267.891 195.738 265.663 200.161 266.416C204.584 267.169 210.966 262.726 210.966 262.726C210.966 262.726 213.422 220.189 202.862 211.34C201.561 209.329 200.145 207.395 198.621 205.547C195.787 202.111 191.946 198.239 188.324 197.285C187.86 197.16 187.384 197.087 186.904 197.067C186.904 197.067 175.855 190.922 172.909 195.592C172.905 195.605 165.046 195.36 166.029 203.965Z" fill="#575988"/>
<path opacity="0.1" d="M210.837 249.817C210.837 249.817 206.925 248.102 200.281 248.587C193.637 249.073 181.845 243.2 181.845 243.2" fill="black"/>
<path opacity="0.05" d="M203.716 304.644C203.716 304.644 203.472 305.384 206.662 306.364C209.853 307.344 210.837 308.329 210.837 308.329" fill="black"/>
<path d="M225.713 136.933H201.015C198.103 136.933 195.742 139.297 195.742 142.214V166.944C195.742 169.861 198.103 172.225 201.015 172.225H225.713C228.625 172.225 230.986 169.861 230.986 166.944V142.214C230.986 139.297 228.625 136.933 225.713 136.933Z" fill="#06B2BA"/>
<path d="M193.971 168.718C193.988 169.879 194.276 171.021 194.812 172.051L196.232 174.783L197.215 176.672L203.352 177.162C203.352 177.162 203.481 176.654 203.636 175.825C204.081 173.366 204.816 168.054 203.352 164.387C201.389 159.485 200.65 149.882 196.966 152.093C194.042 153.844 193.904 164.422 193.971 168.718Z" fill="#F7C4A7"/>
<path opacity="0.1" d="M196.245 174.707V174.783L197.228 176.672L203.365 177.162C203.365 177.162 203.494 176.654 203.65 175.825C201.438 174.965 198.559 174.185 196.245 174.707Z" fill="black"/>
<path d="M196.245 175.197V179.622L205.083 184.292C205.083 184.292 205.185 183.49 205.372 182.456C205.692 180.673 206.262 178.209 207.05 177.902C207.032 177.902 200.646 174.212 196.245 175.197Z" fill="#E6E6F0"/>
<path opacity="0.05" d="M172.322 215.386C173.398 216.335 174.659 217.051 176.026 217.489C177.392 217.927 178.834 218.077 180.261 217.93C195.8 216.348 196.245 210.849 196.245 210.849L198.63 205.56C195.796 202.125 191.955 198.252 188.333 197.299C185.756 201.456 183.474 204.455 183.474 204.455C183.474 204.455 171.935 195.605 168.495 203.965C166.483 208.831 169.474 212.864 172.322 215.386Z" fill="black"/>
<path opacity="0.1" d="M196.245 177.906V179.622L205.083 184.292C205.083 184.292 205.185 183.49 205.372 182.456C201.545 181.235 197.776 178.918 196.245 177.906Z" fill="black"/>
<path d="M195.248 177.902C195.248 177.902 201.879 182.572 207.526 183.556L195.987 209.125C195.987 209.125 195.564 214.624 180.02 216.206C178.593 216.352 177.152 216.202 175.785 215.764C174.419 215.326 173.158 214.61 172.081 213.661C169.233 211.139 166.239 207.106 168.241 202.24C171.677 193.881 183.22 202.731 183.22 202.731C183.22 202.731 194.999 187.246 195.248 177.902Z" fill="#575988"/>
<path d="M90.5664 194.175L209.969 276.197L90.5664 358.214V194.175Z" fill="#E8EAF1"/>
<path d="M329.367 194.175L209.969 276.197L329.367 358.214V194.175Z" fill="#E8EAF1"/>
<path d="M90.5664 358.214L205.283 268.84C206.617 267.787 208.267 267.214 209.967 267.214C211.666 267.214 213.316 267.787 214.65 268.84L329.367 358.214H90.5664Z" fill="url(#paint2_linear)"/>
<path d="M90.5664 358.214L205.283 272.748C206.637 271.739 208.279 271.194 209.967 271.194C211.654 271.194 213.296 271.739 214.65 272.748L329.367 358.214H90.5664Z" fill="#E8EAF1"/>
</g>
<defs>
<linearGradient id="paint0_linear" x1="209.969" y1="361.226" x2="209.969" y2="79.7626" gradientUnits="userSpaceOnUse">
<stop stop-color="#808080" stop-opacity="0.25"/>
<stop offset="0.54" stop-color="#808080" stop-opacity="0.12"/>
<stop offset="1" stop-color="#808080" stop-opacity="0.1"/>
</linearGradient>
<linearGradient id="paint1_linear" x1="-73184.9" y1="172484" x2="-73184.9" y2="76085" gradientUnits="userSpaceOnUse">
<stop stop-color="#808080" stop-opacity="0.25"/>
<stop offset="0.54" stop-color="#808080" stop-opacity="0.12"/>
<stop offset="1" stop-color="#808080" stop-opacity="0.1"/>
</linearGradient>
<linearGradient id="paint2_linear" x1="136646" y1="76080.7" x2="136646" y2="57497.5" gradientUnits="userSpaceOnUse">
<stop stop-color="#808080" stop-opacity="0.25"/>
<stop offset="0.54" stop-color="#808080" stop-opacity="0.12"/>
<stop offset="1" stop-color="#808080" stop-opacity="0.1"/>
</linearGradient>
<clipPath id="clip0">
<rect width="445" height="375" fill="white"/>
</clipPath>
</defs>
</svg>
