<svg width="540" height="341" viewBox="0 0 540 341" fill="none" xmlns="http://www.w3.org/2000/svg">
<g clip-path="url(#clip0)">
<path d="M202.064 142.715C202.064 142.715 246.34 144.857 249.007 160.391C251.675 175.925 197.263 161.998 197.263 161.998L202.064 142.715Z" fill="#A0616A"/>
<path d="M132.183 93.4353C132.183 93.4353 139.652 95.5779 145.519 108.433C151.387 121.289 163.123 133.073 163.123 133.073L210.599 142.179L202.598 166.283L157.255 160.391L128.983 144.322L132.183 93.4353Z" fill="#575A89"/>
<path opacity="0.1" d="M132.183 93.4353C132.183 93.4353 139.652 95.5779 145.519 108.433C151.387 121.289 163.123 133.073 163.123 133.073L210.599 142.179L202.598 166.283L157.255 160.391L128.983 144.322L132.183 93.4353Z" fill="black"/>
<path d="M495.724 49.78H439.713V50.8513H495.724V49.78Z" fill="#3F3D56"/>
<path d="M395.971 49.78H218.334V50.8513H395.971V49.78Z" fill="#3F3D56"/>
<path d="M437.046 178.871H16.1597V340.101H437.046V178.871Z" fill="#3F3D56"/>
<path d="M61.7689 68.7955L66.5699 99.3274L99.6433 100.934L95.9092 55.9399L61.7689 68.7955Z" fill="#A0616A"/>
<path d="M26.8285 272.609L25.2281 340.101H75.3717L82.8399 313.319L88.7078 340.101H140.985C140.985 340.101 142.052 262.968 136.184 262.432C130.316 261.896 26.8285 272.609 26.8285 272.609Z" fill="#2F2E41"/>
<path d="M72.4377 76.8303C88.3468 76.8303 101.244 63.8801 101.244 47.9053C101.244 31.9305 88.3468 18.9803 72.4377 18.9803C56.5287 18.9803 43.6318 31.9305 43.6318 47.9053C43.6318 63.8801 56.5287 76.8303 72.4377 76.8303Z" fill="#A0616A"/>
<path d="M23.8946 275.556L38.831 201.636L19.0936 103.613L64.5506 86.4848L86.8408 83.7936L98.0466 81.6931L106.045 83.7936C106.045 83.7936 138.051 91.8283 139.652 97.7205C141.252 103.613 133.25 151.821 133.25 151.821L125.782 191.459L142.319 262.7C142.319 262.7 73.5048 286.268 24.9615 275.556H23.8946Z" fill="#575A89"/>
<path opacity="0.1" d="M43.8986 130.663V150.482L106.841 150.568L47.0992 144.054L43.8986 130.663Z" fill="black"/>
<path opacity="0.1" d="M38.4927 185.398L117.514 174.05L38.4927 196.524V185.398Z" fill="black"/>
<path opacity="0.1" d="M163.923 133.341L155.451 163.993L169.791 134.352L163.923 133.341Z" fill="black"/>
<path d="M96.1445 18.8965L101.442 16.7671C101.442 16.7671 90.3658 4.52288 74.9559 5.58765L79.29 0.796385C79.29 0.796385 68.6958 -3.46243 59.0647 7.71702C54.0018 13.5938 48.1439 20.5017 44.4922 28.2833H38.8194L41.187 33.5181L32.9003 38.7529L41.4058 37.8127C40.899 40.6793 40.8212 43.6059 41.175 46.4956C41.5398 49.3862 43.0089 52.0214 45.272 53.845V53.845C45.272 53.845 51.8414 40.1908 51.8414 38.0613V43.3849C51.8414 43.3849 57.1385 38.5937 57.1385 35.3996L60.0278 39.1261L61.4725 33.2701L79.29 39.1261L76.4007 34.3349L87.4765 35.9319L83.1424 30.076C83.1424 30.076 95.6628 36.9966 96.1445 42.8526C96.6259 48.7085 100.291 54.2573 100.291 54.2573C100.291 54.2573 110.11 26.8819 96.1445 18.8965Z" fill="#2F2E41"/>
<path d="M329.29 125.842H124.448V340.637H329.29V125.842Z" fill="#D0CDE1"/>
<path d="M297.284 172.979H145.786V194.405H297.284V172.979Z" fill="#06B2BA"/>
<path d="M271.048 229.758H171.831V240.471H271.048V229.758Z" fill="#06B2BA"/>
<path d="M271.239 248.505H172.022V259.218H271.239V248.505Z" fill="#06B2BA"/>
<path d="M221.822 267.253H172.214V277.966H221.822V267.253Z" fill="#06B2BA"/>
<path d="M299.951 321.353H277.013V332.066H299.951V321.353Z" fill="#06B2BA"/>
<path d="M109.779 152.892C109.779 152.892 156.188 145.929 163.123 156.106C170.058 166.283 114.046 171.64 114.046 171.64L109.779 152.892Z" fill="#A0616A"/>
<path d="M24.428 103.077H21.0855C19.7108 103.073 18.3854 103.591 17.375 104.527C14.2021 107.485 7.49316 115.119 4.69059 128.788C0.956493 147 -5.44482 182.353 8.95813 185.031C23.3611 187.709 117.78 174.854 117.78 174.854L110.846 150.214L42.565 150.749C42.565 150.749 43.6319 138.965 41.4981 131.466C39.3643 123.967 24.428 103.077 24.428 103.077Z" fill="#575A89"/>
<path d="M218.334 72.2772C230.413 72.2772 240.205 62.4447 240.205 50.3157C240.205 38.1866 230.413 28.3541 218.334 28.3541C206.255 28.3541 196.463 38.1866 196.463 50.3157C196.463 62.4447 206.255 72.2772 218.334 72.2772Z" fill="#D0CDE1"/>
<path d="M318.088 72.2772C330.167 72.2772 339.959 62.4447 339.959 50.3157C339.959 38.1866 330.167 28.3541 318.088 28.3541C306.009 28.3541 296.217 38.1866 296.217 50.3157C296.217 62.4447 306.009 72.2772 318.088 72.2772Z" fill="#3F3D56"/>
<path d="M417.842 72.8129C413.41 72.8129 409.079 71.4934 405.394 69.0214C401.71 66.5494 398.838 63.0358 397.142 58.925C395.447 54.8142 395.003 50.2907 395.868 45.9267C396.732 41.5627 398.866 37.5541 401.999 34.4078C405.133 31.2615 409.125 29.1188 413.471 28.2508C417.817 27.3827 422.322 27.8282 426.415 29.531C430.509 31.2338 434.008 34.1173 436.47 37.8169C438.932 41.5166 440.246 45.8662 440.246 50.3157C440.239 56.2803 437.877 61.9986 433.677 66.2162C429.476 70.4338 423.782 72.8062 417.842 72.8129V72.8129ZM417.842 28.8898C413.621 28.8898 409.496 30.1464 405.987 32.5007C402.478 34.855 399.743 38.2013 398.128 42.1164C396.513 46.0314 396.091 50.3395 396.914 54.4957C397.737 58.6519 399.769 62.4696 402.754 65.4661C405.738 68.4626 409.54 70.5032 413.679 71.3299C417.818 72.1566 422.108 71.7323 426.007 70.1107C429.906 68.489 433.239 65.7428 435.583 62.2193C437.928 58.6958 439.179 54.5533 439.179 50.3157C439.173 44.6352 436.923 39.1892 432.923 35.1724C428.922 31.1557 423.499 28.8962 417.842 28.8898Z" fill="#3F3D56"/>
<path d="M517.595 72.8129C513.164 72.8129 508.833 71.4934 505.148 69.0214C501.464 66.5494 498.592 63.0358 496.896 58.925C495.201 54.8142 494.757 50.2907 495.621 45.9267C496.486 41.5627 498.62 37.5541 501.753 34.4078C504.886 31.2615 508.879 29.1188 513.225 28.2508C517.571 27.3827 522.075 27.8282 526.169 29.531C530.263 31.2338 533.762 34.1173 536.224 37.8169C538.686 41.5166 540 45.8662 540 50.3157C539.993 56.2803 537.631 61.9986 533.431 66.2162C529.23 70.4338 523.535 72.8062 517.595 72.8129V72.8129ZM517.595 28.8898C513.375 28.8898 509.25 30.1464 505.741 32.5007C502.232 34.855 499.497 38.2013 497.882 42.1164C496.267 46.0314 495.845 50.3395 496.668 54.4957C497.491 58.6519 499.523 62.4696 502.507 65.4661C505.492 68.4626 509.294 70.5032 513.433 71.3299C517.572 72.1566 521.862 71.7323 525.761 70.1107C529.66 68.489 532.993 65.7428 535.337 62.2193C537.682 58.6958 538.933 54.5533 538.933 50.3157C538.927 44.6352 536.677 39.1892 532.676 35.1724C528.676 31.1557 523.253 28.8962 517.595 28.8898Z" fill="#3F3D56"/>
<path d="M215.319 59.6587L205.841 46.9697L209.255 44.3981L215.781 53.1345L245.781 23.0107L248.798 26.0404L215.319 59.6587Z" fill="#3F3D56"/>
<path d="M444.406 339.51H8.79956V341H444.406V339.51Z" fill="#3F3D56"/>
</g>
<defs>
<clipPath id="clip0">
<rect width="540" height="341" fill="white"/>
</clipPath>
</defs>
</svg>
