<svg width="20" height="20" viewBox="0 0 20 20" fill="none" xmlns="http://www.w3.org/2000/svg">
<path d="M9.9922 4.375C6.85158 4.375 4.37501 6.35156 1.41408 9.58203C1.19923 9.82031 1.19533 10.1758 1.41017 10.4141C3.94533 13.2148 6.1797 15.625 9.9922 15.625C13.7578 15.625 16.582 12.5898 18.5899 10.3906C18.7969 10.1641 18.8086 9.82031 18.6094 9.58203C16.5625 7.10156 13.7305 4.375 9.9922 4.375ZM10.1641 13.5117C8.09376 13.6055 6.39064 11.9023 6.48829 9.83594C6.57033 8.03125 8.03126 6.57031 9.83595 6.48828C11.9063 6.39453 13.6094 8.09766 13.5117 10.1641C13.4297 11.9688 11.9688 13.4297 10.1641 13.5117Z" fill="black"/>
<path d="M9.99982 8.16406C9.99982 7.92969 10.0428 7.70703 10.1209 7.50391C10.0819 7.50391 10.0428 7.5 9.99982 7.5C8.55842 7.5 7.39826 8.72657 7.50764 10.1914C7.60139 11.4141 8.58576 12.3985 9.80842 12.4922C11.2733 12.6016 12.4998 11.4414 12.4998 10C12.4998 9.94923 12.4959 9.89844 12.4959 9.84766C12.2772 9.94532 12.0389 10 11.785 10C10.8006 10 9.99982 9.17579 9.99982 8.16406Z" fill="black"/>
</svg>
