<svg width="20" height="20" viewBox="0 0 20 20" fill="none" xmlns="http://www.w3.org/2000/svg">
<path d="M3.44922 2.66014C3.23047 2.4453 2.87891 2.4453 2.66406 2.66405C2.44922 2.87889 2.44922 3.23045 2.66406 3.4453L16.5508 17.3398C16.6953 17.4844 16.9023 17.5312 17.0859 17.4805C17.1797 17.457 17.2656 17.4062 17.3359 17.3359C17.5508 17.1211 17.5508 16.7695 17.3359 16.5547L3.44922 2.66014Z" fill="#757575"/>
<path d="M10.1641 13.5117C8.09376 13.6055 6.39064 11.9023 6.48829 9.83594C6.51173 9.35938 6.62892 8.90625 6.82423 8.49609L4.73829 6.40625C3.65626 7.24219 2.57423 8.31641 1.41408 9.58203C1.19923 9.82031 1.19533 10.1758 1.41017 10.4141C3.94533 13.2148 6.1797 15.625 9.9922 15.625C11.1524 15.625 12.2227 15.3359 13.207 14.875L11.5078 13.1758C11.0938 13.3711 10.6406 13.4883 10.1641 13.5117Z" fill="#757575"/>
<path d="M18.5859 10.3906C18.793 10.1641 18.8047 9.82031 18.6055 9.58203C16.5625 7.10156 13.7305 4.375 9.99219 4.375C8.85547 4.375 7.80469 4.63281 6.78906 5.11719L8.49609 6.82422C8.90625 6.62891 9.35938 6.50781 9.83594 6.48828C11.9062 6.39453 13.6094 8.09766 13.5117 10.1641C13.4883 10.6406 13.3711 11.0938 13.1758 11.5039L15.2656 13.5938C16.5547 12.6055 17.6602 11.4102 18.5859 10.3906Z" fill="#757575"/>
<path d="M7.50758 10.1914C7.60133 11.414 8.58571 12.3984 9.80837 12.4921C10.1287 12.5156 10.4373 12.4804 10.7224 12.3906L7.60524 9.27341C7.5193 9.56247 7.48415 9.87106 7.50758 10.1914Z" fill="#757575"/>
<path d="M12.5 10C12.5 9.94925 12.4961 9.89847 12.4961 9.84769C12.2773 9.94534 12.0391 10 11.7852 10C11.7422 10 11.7031 10 11.6641 9.99612L12.3906 10.7266C12.4609 10.4961 12.5 10.25 12.5 10Z" fill="#757575"/>
<path d="M10 8.16406C10 7.92969 10.043 7.70703 10.1211 7.50391C10.082 7.50391 10.043 7.5 10 7.5C9.75 7.5 9.50781 7.53906 9.27734 7.60938L10.0078 8.33984C10.0039 8.28125 10 8.22266 10 8.16406Z" fill="#757575"/>
</svg>
