<svg width="30" height="30" viewBox="0 0 30 30" fill="none" xmlns="http://www.w3.org/2000/svg">
<path d="M25.0078 3.75H4.99219C4.30664 3.75 3.75 4.30664 3.75 4.99219V25.0078C3.75 25.6934 4.30664 26.25 4.99219 26.25H15V17.3438H12.3105V14.0625H15V11.6367C15 8.73047 17.0156 7.14844 19.6113 7.14844C20.8535 7.14844 22.1895 7.24219 22.5 7.2832V10.3184H20.4316C19.0195 10.3184 18.75 10.9863 18.75 11.9707V14.0625H22.1133L21.6738 17.3438H18.75V26.25H25.0078C25.6934 26.25 26.25 25.6934 26.25 25.0078V4.99219C26.25 4.30664 25.6934 3.75 25.0078 3.75Z" fill="#06B2BA"/>
</svg>
