<svg width="30" height="30" viewBox="0 0 30 30" fill="none" xmlns="http://www.w3.org/2000/svg">
<path d="M19.6875 5.625C20.9297 5.625 22.1074 6.11719 22.998 7.00195C23.8887 7.88672 24.375 9.07031 24.375 10.3125V19.6875C24.375 20.9297 23.8828 22.1074 22.998 22.998C22.1133 23.8887 20.9297 24.375 19.6875 24.375H10.3125C9.07031 24.375 7.89258 23.8828 7.00195 22.998C6.11133 22.1133 5.625 20.9297 5.625 19.6875V10.3125C5.625 9.07031 6.11719 7.89258 7.00195 7.00195C7.88672 6.11133 9.07031 5.625 10.3125 5.625H19.6875ZM19.6875 3.75H10.3125C6.70313 3.75 3.75 6.70313 3.75 10.3125V19.6875C3.75 23.2969 6.70313 26.25 10.3125 26.25H19.6875C23.2969 26.25 26.25 23.2969 26.25 19.6875V10.3125C26.25 6.70313 23.2969 3.75 19.6875 3.75Z" fill="#06B2BA"/>
<path d="M21.0938 10.3125C20.3145 10.3125 19.6875 9.68555 19.6875 8.90625C19.6875 8.12695 20.3145 7.5 21.0938 7.5C21.8672 7.5 22.5 8.12695 22.5 8.90625C22.5 9.68555 21.8672 10.3125 21.0938 10.3125Z" fill="#06B2BA"/>
<path d="M15 11.25C17.0684 11.25 18.75 12.9316 18.75 15C18.75 17.0684 17.0684 18.75 15 18.75C12.9316 18.75 11.25 17.0684 11.25 15C11.25 12.9316 12.9316 11.25 15 11.25ZM15 9.375C11.8945 9.375 9.375 11.8945 9.375 15C9.375 18.1055 11.8945 20.625 15 20.625C18.1055 20.625 20.625 18.1055 20.625 15C20.625 11.8945 18.1055 9.375 15 9.375Z" fill="#06B2BA"/>
</svg>
