<svg width="20" height="20" viewBox="0 0 20 20" fill="none" xmlns="http://www.w3.org/2000/svg">
<path d="M12.1875 14.5312C11.8867 14.5312 11.6406 14.7773 11.6406 15.0781C11.6406 15.4648 11.3242 15.7812 10.9375 15.7812H3.67188C3.28516 15.7812 2.96875 15.4648 2.96875 15.0781V4.92188C2.96875 4.53516 3.28516 4.21875 3.67188 4.21875H10.9375C11.3242 4.21875 11.6406 4.53516 11.6406 4.92188C11.6406 5.22266 11.8867 5.46875 12.1875 5.46875C12.4883 5.46875 12.7344 5.22266 12.7344 4.92188C12.7344 3.92969 11.9297 3.125 10.9375 3.125H3.67188C2.67969 3.125 1.875 3.92969 1.875 4.92188V15.0781C1.875 16.0703 2.67969 16.875 3.67188 16.875H10.9375C11.9297 16.875 12.7344 16.0703 12.7344 15.0781C12.7344 14.7773 12.4883 14.5312 12.1875 14.5312Z" fill="#F30101"/>
<path d="M14.5664 6.17578C14.4648 6.07422 14.3281 6.01562 14.1797 6.01562C14.0352 6.01562 13.8945 6.07031 13.793 6.17578C13.5781 6.39063 13.5781 6.73437 13.793 6.94922L16.3398 9.45703H6.32812C6.02734 9.45703 5.78125 9.70313 5.78125 10.0039C5.78125 10.3047 6.02734 10.5508 6.32812 10.5508H16.3516L13.8672 13.0547C13.6562 13.2656 13.6562 13.6133 13.8672 13.8281L13.8711 13.832C13.9766 13.9297 14.1133 13.9844 14.2539 13.9844C14.4023 13.9844 14.5391 13.9297 14.6406 13.8242L17.8672 10.6055C18.0352 10.4375 18.1211 10.2422 18.1211 10.0312C18.1211 9.82422 18.0312 9.62891 17.8672 9.46484L14.5664 6.17578Z" fill="#F30101"/>
</svg>
