<svg width="20" height="20" viewBox="0 0 20 20" fill="none" xmlns="http://www.w3.org/2000/svg">
<path fill-rule="evenodd" clip-rule="evenodd" d="M10 6L7.30971 8.69029C7.13866 8.86134 7.13866 9.13866 7.30971 9.30971C7.48075 9.48075 7.75807 9.48075 7.92912 9.30971L9.99729 7.24153L12.0687 9.31292C12.2395 9.48376 12.5165 9.48376 12.6874 9.31292C12.8582 9.14208 12.8582 8.86508 12.6874 8.69424L10.616 6.62285L10.6194 6.61941L10 6Z" fill="#757575"/>
<path fill-rule="evenodd" clip-rule="evenodd" d="M10 15.0001L12.6903 12.3098C12.8613 12.1388 12.8613 11.8615 12.6903 11.6904C12.5192 11.5194 12.2419 11.5194 12.0709 11.6904L10.0027 13.7586L7.93132 11.6872C7.76048 11.5164 7.48348 11.5164 7.31264 11.6872C7.1418 11.858 7.1418 12.135 7.31264 12.3059L9.38403 14.3773L9.38059 14.3807L10 15.0001Z" fill="#222222"/>
</svg>
