<svg width="20" height="20" viewBox="0 0 20 20" fill="none" xmlns="http://www.w3.org/2000/svg">
<rect width="20" height="20" rx="10" fill="#34C759"/>
<path d="M15.4943 15.2043C15.2974 14.3374 14.1736 13.9148 13.7853 13.7785C13.3587 13.6285 12.7517 13.5931 12.3607 13.5059C12.1365 13.4568 11.8111 13.3341 11.7017 13.2032C11.5923 13.0724 11.6579 11.8592 11.6579 11.8592C11.6579 11.8592 11.8603 11.5457 11.9697 11.2676C12.079 10.9923 12.1993 10.2344 12.1993 10.2344C12.1993 10.2344 12.4236 10.2344 12.5029 9.8418C12.5876 9.41378 12.7216 9.24748 12.7052 8.92851C12.6888 8.61499 12.5165 8.62317 12.5165 8.62317C12.5165 8.62317 12.6833 8.16789 12.7025 7.22461C12.7271 6.10413 11.8466 5 10.2525 5C8.63646 5 7.77513 6.10413 7.79974 7.22461C7.82161 8.16789 7.98294 8.62317 7.98294 8.62317C7.98294 8.62317 7.81068 8.61499 7.79427 8.92851C7.77786 9.24748 7.91185 9.41378 7.99661 9.8418C8.07318 10.2344 8.30013 10.2344 8.30013 10.2344C8.30013 10.2344 8.42044 10.9923 8.52982 11.2676C8.63919 11.5457 8.84154 11.8592 8.84154 11.8592C8.84154 11.8592 8.90716 13.0724 8.79779 13.2032C8.68841 13.3341 8.36302 13.4568 8.1388 13.5059C7.74779 13.5931 7.14075 13.6285 6.71419 13.7785C6.32591 13.9148 5.20208 14.3374 5.00521 15.2043C4.97513 15.3406 5.07904 15.4688 5.22122 15.4688H15.281C15.4204 15.4688 15.5243 15.3406 15.4943 15.2043Z" fill="white"/>
</svg>
