<?xml version="1.0" standalone="no"?>
<!DOCTYPE svg PUBLIC "-//W3C//DTD SVG 20010904//EN"
 "http://www.w3.org/TR/2001/REC-SVG-20010904/DTD/svg10.dtd">
<svg version="1.0" xmlns="http://www.w3.org/2000/svg"
 width="540.000000pt" height="540.000000pt" viewBox="0 0 540.000000 540.000000"
 preserveAspectRatio="xMidYMid meet">
<metadata>
Created by potrace 1.11, written by Peter Selinger 2001-2013
</metadata>
<g transform="translate(0.000000,540.000000) scale(0.100000,-0.100000)"
fill="#000000" stroke="none">
<path d="M2590 5387 c-3 -3 -22 -8 -42 -11 -46 -7 -112 -33 -159 -62 -20 -13
-214 -159 -430 -326 l-393 -302 -170 -2 c-178 -1 -224 -8 -281 -47 -98 -66
-135 -154 -131 -311 2 -59 -1 -82 -13 -96 -9 -9 -77 -64 -151 -121 -74 -56
-200 -153 -280 -214 -80 -61 -170 -127 -200 -147 -84 -55 -131 -112 -172 -209
l-23 -54 -3 -1603 c-2 -1564 -2 -1605 17 -1647 30 -68 93 -129 174 -168 141
-70 7 -66 2307 -65 1141 1 2125 4 2186 8 97 5 118 10 175 38 76 38 94 52 142
115 76 99 71 -33 72 1800 l0 1637 -55 43 c-30 23 -72 53 -92 67 -21 14 -38 28
-38 33 0 4 -6 7 -14 7 -8 0 -16 4 -18 8 -1 4 -52 43 -113 87 -60 44 -114 83
-120 88 -5 4 -35 26 -65 48 -67 50 -77 57 -220 162 l-115 85 1 98 c1 163 -28
232 -126 306 -60 44 -101 51 -305 53 -104 0 -197 5 -205 10 -16 10 -205 148
-230 168 -18 15 -291 215 -323 237 -12 8 -84 61 -159 117 -138 103 -212 147
-264 158 -43 10 -158 18 -164 12z"/>
</g>
</svg>
